<?xml version="1.0" encoding="UTF-8" standalone="no"?>
<!-- Created with Inkscape (http://www.inkscape.org/) -->

<svg
   xmlns:dc="http://purl.org/dc/elements/1.1/"
   xmlns:cc="http://creativecommons.org/ns#"
   xmlns:rdf="http://www.w3.org/1999/02/22-rdf-syntax-ns#"
   xmlns:svg="http://www.w3.org/2000/svg"
   xmlns="http://www.w3.org/2000/svg"
   xmlns:sodipodi="http://sodipodi.sourceforge.net/DTD/sodipodi-0.dtd"
   xmlns:inkscape="http://www.inkscape.org/namespaces/inkscape"
   width="900"
   height="600"
   viewBox="0 0 900.00001 600.00001"
   id="svg3345"
   version="1.1"
   inkscape:version="0.91 r13725"
   sodipodi:docname="logo.svg">
  <sodipodi:namedview
     id="base"
     pagecolor="#ffffff"
     bordercolor="#666666"
     borderopacity="1.0"
     inkscape:pageopacity="0.0"
     inkscape:pageshadow="2"
     inkscape:zoom="0.98994949"
     inkscape:cx="551.77246"
     inkscape:cy="399.47067"
     inkscape:document-units="px"
     inkscape:current-layer="layer1"
     showgrid="false"
     units="px"
     inkscape:window-width="1920"
     inkscape:window-height="1027"
     inkscape:window-x="-8"
     inkscape:window-y="-8"
     inkscape:window-maximized="1"
     inkscape:snap-object-midpoints="true" />
  <defs
     id="defs3347">
    <inkscape:path-effect
       effect="bend_path"
       id="path-effect6977"
       is_visible="true"
       bendpath="m 110.18711,810.50933 c 207.4647,-70.15164 398.32488,-72.60791 570.77308,0"
       prop_scale="1"
       scale_y_rel="false"
       vertical="false"
       bendpath-nodetypes="cc" />
    <inkscape:path-effect
       effect="bend_path"
       id="path-effect4210"
       is_visible="true"
       bendpath="m 338.87695,698.99336 c 39.54624,-21.59753 80.55167,-29.33276 125.45899,0"
       prop_scale="1"
       scale_y_rel="false"
       vertical="false"
       bendpath-nodetypes="cc" />
  </defs>
  <metadata
     id="metadata3350">
    <rdf:RDF>
      <cc:Work
         rdf:about="">
        <dc:format>image/svg+xml</dc:format>
        <dc:type
           rdf:resource="http://purl.org/dc/dcmitype/StillImage" />
        <dc:title />
      </cc:Work>
    </rdf:RDF>
  </metadata>
  <g
     inkscape:label="Capa 1"
     inkscape:groupmode="layer"
     id="layer1"
     transform="translate(0,-452.36216)">
    <path
       transform="matrix(0.76502323,0.21286818,-0.21262434,0.76414689,210.92415,101.20004)"
       inkscape:transform-center-y="-0.66427063"
       inkscape:transform-center-x="17.028942"
       d="m 670.74129,856.39257 -58.71438,27.6355 -25.54362,59.65419 -64.83186,-2.81591 -50.34044,40.95046 -56.09714,-32.62224 -63.60487,12.86546 -34.51125,-54.9552 -62.29819,-18.16686 -5.01923,-64.69858 -46.71975,-45.03737 25.62261,-59.6203 -20.43837,-61.59036 50.39464,-40.88374 10.52518,-64.03374 63.62186,-12.78119 39.07755,-51.80776 62.27407,18.24936 58.67773,-27.71325 46.66004,45.09922 64.83554,2.73003 20.35677,61.61737 56.1403,32.5479 -10.60999,64.01974 34.58401,54.90943 -39.14615,51.75596 z"
       inkscape:randomized="0"
       inkscape:rounded="0"
       inkscape:flatsided="false"
       sodipodi:arg2="0.76772739"
       sodipodi:arg1="0.52606642"
       sodipodi:r2="223.05875"
       sodipodi:r1="253.47585"
       sodipodi:cy="729.11334"
       sodipodi:cx="451.53818"
       sodipodi:sides="13"
       id="path3334"
       style="fill:#2ca089;fill-opacity:0.94117647;fill-rule:evenodd;stroke:#000000;stroke-width:1px;stroke-linecap:butt;stroke-linejoin:miter;stroke-opacity:1"
       sodipodi:type="star" />
    <path
       sodipodi:type="star"
       style="fill:#374548;fill-opacity:0.94117647;fill-rule:evenodd;stroke:#000000;stroke-width:1px;stroke-linecap:butt;stroke-linejoin:miter;stroke-opacity:1"
       id="path3353"
       sodipodi:sides="13"
       sodipodi:cx="451.53818"
       sodipodi:cy="729.11334"
       sodipodi:r1="253.47585"
       sodipodi:r2="223.05875"
       sodipodi:arg1="0.52606642"
       sodipodi:arg2="0.76772739"
       inkscape:flatsided="false"
       inkscape:rounded="0"
       inkscape:randomized="0"
       d="m 670.74129,856.39257 -58.71438,27.6355 -25.54362,59.65419 -64.83186,-2.81591 -50.34044,40.95046 -56.09714,-32.62224 -63.60487,12.86546 -34.51125,-54.9552 -62.29819,-18.16686 -5.01923,-64.69858 -46.71975,-45.03737 25.62261,-59.6203 -20.43837,-61.59036 50.39464,-40.88374 10.52518,-64.03374 63.62186,-12.78119 39.07755,-51.80776 62.27407,18.24936 58.67773,-27.71325 46.66004,45.09922 64.83554,2.73003 20.35677,61.61737 56.1403,32.5479 -10.60999,64.01974 34.58401,54.90943 -39.14615,51.75596 z"
       inkscape:transform-center-x="13.082084"
       inkscape:transform-center-y="6.3416892"
       transform="matrix(0.79408652,0,0,0.79317689,39.225496,173.12712)" />
    <circle
       style="fill:none;fill-opacity:0.94117647;stroke:#cccccc;stroke-opacity:1;stroke-width:3;stroke-miterlimit:4;stroke-dasharray:none"
       id="path4136"
       cx="400.50763"
       cy="749.83423"
       r="150" />
    <circle
       cy="750.32416"
       cx="401.02829"
       id="circle4138"
       style="fill:none;fill-opacity:0.94117647;stroke:#cccccc;stroke-width:2.6730001;stroke-miterlimit:4;stroke-dasharray:2.6730001,8.01900029;stroke-opacity:1;stroke-dashoffset:0"
       r="133.66336" />
    <g
       style="font-style:normal;font-weight:normal;font-size:40px;line-height:125%;font-family:sans-serif;letter-spacing:0px;word-spacing:0px;fill:#899ca2;fill-opacity:1;stroke:none;stroke-width:1px;stroke-linecap:butt;stroke-linejoin:miter;stroke-opacity:1"
       id="text4144"
       transform="matrix(-0.94103094,-0.33832051,0.31163599,-0.86680853,548.35998,1526.9632)">
      <path
         d="m 530.64261,756.72255 -0.73368,3.91625 -25.35625,1.48919 23.10126,10.54749 -0.8164,4.35778 -25.35624,1.4892 23.10125,10.54749 -0.73727,3.93544 -27.31285,-12.56851 0.91351,-4.8761 26.01254,-1.38611 -23.73598,-10.76576 0.91351,-4.87611 30.0066,-1.81025 z"
         id="path4176"
         inkscape:connector-curvature="0" />
      <path
         d="m 494.10181,811.91238 -1.54632,-0.83595 7.85799,-14.53534 q -3.3759,-1.55862 -6.04144,-0.73497 -2.65765,0.85011 -4.35742,3.99428 -0.98457,1.82122 -1.45741,3.76366 -0.48213,1.95962 -0.49897,4.12638 l -2.98954,-1.61618 q 0.19794,-2.09106 0.78595,-4.08225 0.588,-1.9912 1.58186,-3.82959 2.48929,-4.60458 6.62785,-5.85304 4.12926,-1.23129 8.69948,1.23943 4.72484,2.55431 6.11634,6.59257 1.39939,4.06472 -0.94129,8.3944 -2.09918,3.88296 -5.82442,4.7776 -3.71735,0.92111 -8.01266,-1.401 z m 2.63685,-2.65977 q 2.61295,1.36818 4.9302,0.7781 2.30796,-0.57291 3.57118,-2.90956 1.43041,-2.64591 0.79947,-5.05186 -0.64024,-2.38876 -3.22484,-4.09687 l -6.07601,11.28019 z"
         id="path4178"
         inkscape:connector-curvature="0" />
      <path
         d="m 503.54042,829.77367 -2.24281,2.808 -23.74592,-18.96632 2.24281,-2.808 23.74592,18.96632 z"
         id="path4180"
         inkscape:connector-curvature="0" />
      <path
         d="m 475.07441,845.55369 -2.24562,-2.49852 q 1.69446,-0.39373 3.11621,-1.1201 1.42028,-0.69878 2.58238,-1.74325 2.6002,-2.33701 2.54993,-5.28555 -0.0372,-2.934 -2.71368,-5.91189 -2.67647,-2.97788 -5.60294,-3.34134 -2.91342,-0.34894 -5.51363,1.98807 -1.1621,1.04448 -2.02097,2.36789 -0.86035,1.351 -1.432,2.99399 l -2.2195,-2.46947 q 0.64851,-1.52825 1.61918,-2.87336 0.95615,-1.33206 2.30709,-2.54626 3.67515,-3.30315 7.91546,-2.93881 4.2403,0.36435 7.7654,4.28644 3.57733,3.9802 3.44816,8.21922 -0.14368,4.25207 -3.94957,7.67272 -1.23473,1.10975 -2.64637,1.90581 -1.39858,0.81058 -2.95953,1.29441 z"
         id="path4182"
         inkscape:connector-curvature="0" />
      <path
         d="m 457.67587,854.62941 q 2.53646,-1.3864 2.92371,-4.18004 0.39662,-2.77651 -1.48625,-6.22129 -1.88288,-3.44479 -4.42626,-4.63658 -2.55116,-1.16529 -5.10476,0.23048 -2.51932,1.37703 -2.90657,4.17067 -0.38725,2.79364 1.48626,6.22129 1.86414,3.4105 4.42466,4.59293 2.56989,1.19956 5.08921,-0.17746 z m 1.46134,2.67356 q -4.11318,2.24821 -7.92245,0.858 -3.80928,-1.39021 -6.39472,-6.12036 -2.57607,-4.71301 -1.69884,-8.68707 0.8866,-3.95692 4.99978,-6.20513 4.13031,-2.25757 7.93958,-0.86736 3.80151,1.41671 6.37758,6.12972 2.58544,4.73016 1.71598,8.67771 -0.8866,3.95691 -5.01691,6.21449 z"
         id="path4184"
         inkscape:connector-curvature="0" />
      <path
         d="m 420.54838,865.81537 q -0.88801,2.62547 -2.52401,4.09756 -1.636,1.47208 -4.13329,1.93072 -3.36175,0.61742 -5.62065,-1.41024 -2.25536,-2.00845 -3.05271,-6.3499 l -2.38497,-12.98593 3.55384,-0.6527 2.36381,12.87068 q 0.56801,3.0928 1.93817,4.39008 1.37016,1.29727 3.61772,0.88449 2.74703,-0.50451 4.00629,-2.62229 1.25926,-2.11777 0.68066,-5.26821 l -2.23327,-12.1599 3.55384,-0.65269 2.36381,12.87067 q 0.57154,3.11201 1.93817,4.39008 1.37016,1.29728 3.65614,0.87744 2.70861,-0.49746 3.96434,-2.63444 1.25926,-2.11778 0.68419,-5.249 l -2.23327,-12.15991 3.55384,-0.65269 3.95143,21.51516 -3.55384,0.65269 -0.61388,-3.34253 q -0.84684,2.20089 -2.36444,3.45265 -1.5176,1.25175 -3.84201,1.67865 -2.34361,0.43042 -4.1952,-0.46071 -1.87079,-0.8876 -3.07471,-3.00973 z"
         id="path4186"
         inkscape:connector-curvature="0" />
      <path
         d="m 375.312,859.29057 0.23594,-1.74191 16.37391,2.21789 q 0.26586,-3.70881 -1.44614,-5.91167 -1.73397,-2.18612 -5.27585,-2.66588 -2.05157,-0.27789 -4.03583,-0.0342 -2.00362,0.24105 -4.03668,0.99057 l 0.45616,-3.36769 q 2.02621,-0.55335 4.09675,-0.7065 2.07054,-0.15315 4.14148,0.12737 5.187,0.70259 7.81669,4.13349 2.61033,3.42827 1.91297,8.57657 -0.72094,5.32249 -4.00749,8.05057 -3.30852,2.7448 -8.18586,2.08416 -4.37412,-0.59249 -6.5268,-3.76168 -2.17466,-3.15246 -1.51925,-7.99108 z m 3.41966,1.52752 q -0.35716,2.92777 1.01332,4.88727 1.35112,1.95688 3.98334,2.31342 2.98059,0.40373 5.00864,-1.0363 2.00869,-1.44265 2.69387,-4.46396 l -12.69917,-1.70043 z"
         id="path4188"
         inkscape:connector-curvature="0" />
      <path
         d="m 349.45247,868.84066 -21.93719,-11.28134 1.51847,-2.95275 9.20563,4.73405 11.81727,-22.97933 3.52593,1.81323 -11.81727,22.97934 9.20563,4.73405 -1.51847,2.95275 z"
         id="path4190"
         inkscape:connector-curvature="0" />
      <path
         d="m 324.993,842.26799 q 2.23805,1.82943 4.97242,1.13833 2.72201,-0.67598 5.20658,-3.7155 2.48457,-3.03952 2.63308,-5.84436 0.12103,-2.80207 -2.13214,-4.64387 -2.22293,-1.81707 -4.95731,-1.12597 -2.73437,0.6911 -5.20658,3.7155 -2.45984,3.00927 -2.59323,5.82647 -0.14575,2.83232 2.07718,4.6494 z m -1.92832,2.35903 q -3.62928,-2.96665 -3.77267,-7.01915 -0.14339,-4.05249 3.26826,-8.22616 3.39928,-4.15854 7.41168,-4.83923 4.00003,-0.66557 7.62931,2.30108 3.6444,2.97901 3.78779,7.0315 0.1159,4.05526 -3.28338,8.2138 -3.41165,4.17367 -7.39656,4.8516 -4.00003,0.66557 -7.64443,-2.31344 z"
         id="path4192"
         inkscape:connector-curvature="0" />
    </g>
    <path
       style="fill:#53676c;fill-opacity:1;stroke:none;stroke-width:2.6730001;stroke-miterlimit:4;stroke-dasharray:2.673, 8.019;stroke-dashoffset:0;stroke-opacity:1"
       d="m 400.80963,658.28183 c -0.71013,1.01979 -1.40181,2.04588 -2.07486,3.0778 -2.29268,3.55845 -4.35375,7.15814 -6.20228,10.7908 -5.61097,1.74431 -10.95934,3.87552 -16.07413,6.31437 4.69265,2.68795 9.10375,5.61296 13.15601,8.78366 0.35114,5.04911 0.76205,10.09113 1.2314,15.12575 2.99087,-2.23313 6.14998,-4.28724 9.51037,-6.12221 0.71508,-0.4033 1.44095,-0.79704 2.17724,-1.18088 4.33688,1.92007 8.37865,4.18204 12.07766,6.70677 0.15595,-5.07994 0.21053,-10.16819 0.16338,-15.2617 3.78179,-3.41606 7.95368,-6.60466 12.48435,-9.50314 -5.33562,-2.25957 -10.93539,-4.10264 -16.73503,-5.47739 -2.8515,-4.54696 -6.09046,-8.98159 -9.71411,-13.25383 z m 54.42293,22.81576 c -3.05893,1.92158 -6.02243,3.93289 -8.87686,6.03303 -3.54645,-0.7114 -7.09303,-1.25302 -10.62137,-1.60854 1.46861,3.24881 2.74038,6.51831 3.83543,9.79612 -1.58222,3.15807 -3.14008,6.32697 -4.67317,9.5066 3.04461,-0.34387 6.18612,-0.52034 9.39888,-0.53986 1.98263,2.55751 3.83354,5.1783 5.5698,7.84003 1.4843,-3.2141 2.93984,-6.44375 4.3657,-9.68869 3.23487,-1.19451 6.56381,-2.2705 9.96505,-3.22871 -2.54302,-2.51543 -5.1997,-4.95717 -7.97724,-7.30177 -0.19061,-3.57854 -0.51466,-7.18355 -0.98622,-10.80821 z m -106.44574,1.73154 c -0.40919,3.56988 -0.72226,7.12779 -0.95129,10.66866 -2.8141,2.23404 -5.54679,4.53199 -8.20685,6.87203 3.3807,1.13828 6.71579,2.35692 9.98275,3.65797 1.34398,3.28073 2.70102,6.55461 4.07072,9.82155 1.96577,-2.61926 3.99729,-5.21432 6.11209,-7.76529 3.33329,0.0426 6.60629,0.19463 9.79481,0.468 -1.59754,-3.16278 -3.22317,-6.31471 -4.87597,-9.45564 1.08491,-3.28609 2.29053,-6.56304 3.63522,-9.82092 -3.52779,0.42564 -7.07344,0.98909 -10.62077,1.67332 -2.90067,-2.10559 -5.88591,-4.14553 -8.94071,-6.11968 z"
       id="path4194"
       inkscape:path-effect="#path-effect4210"
       inkscape:original-d="m 401.2207,677.43867 -7.58008,13.25977 -15.1914,3.37305 10.64453,11.27929 -1.25195,15.19727 14.1582,-6.28711 14.41797,6.01758 -1.89453,-15.16602 10.16406,-11.47656 -15.33008,-3.08594 -8.13672,-13.11133 z m 47.89063,10.53907 -4.91797,9.22656 -9.85742,2.34765 6.90625,7.85157 -0.8125,10.57422 9.1875,-4.375 9.35351,4.1875 -1.22851,-10.55469 6.59375,-7.98633 -9.94532,-2.14648 -5.27929,-9.125 z m -95.46094,1.00976 -4.91601,9.22852 -9.85743,2.3457 6.90625,7.85156 -0.8125,10.57422 9.18555,-4.375 9.35547,4.1875 -1.22852,-10.55469 6.59375,-7.98632 -9.94531,-2.14649 -5.28125,-9.125 z"
       inkscape:connector-curvature="0" />
    <g
       id="g6914"
       inkscape:path-effect="#path-effect6977"
       transform="translate(4.0406102,35.355342)">
      <g
         transform="translate(-124.24876,28.284271)"
         id="g6840">
        <path
           style="fill:#37c8ab;fill-opacity:1;stroke:#374548;stroke-width:0.94265866;stroke-miterlimit:4;stroke-dasharray:none;stroke-dashoffset:0;stroke-opacity:1"
           d="m 218.85697,736.15241 c 33.26092,-11.3117 67.18323,-21.24408 101.62403,-29.48345 l 27.09217,112.96124 c -30.72044,7.39667 -61.28161,16.3227 -91.5406,26.46439 6.03612,-22.37971 12.72632,-44.79692 20.14885,-67.19103 -18.54363,-14.69906 -37.68426,-28.95592 -57.32445,-42.75115 z"
           id="rect4214"
           inkscape:connector-curvature="0"
           sodipodi:nodetypes="cccccc"
           inkscape:original-d="m 234.43587,733.58978 99.05734,0 0,116.05735 -99.05734,0 40,-57.90433 z" />
        <path
           style="fill:#374548;fill-opacity:1;fill-rule:evenodd;stroke:none;stroke-width:1px;stroke-linecap:butt;stroke-linejoin:miter;stroke-opacity:1"
           d="m 347.28046,819.55441 c -13.68797,-3.80953 -27.61203,-7.3238 -41.73379,-10.54831 10.13535,-11.00653 20.58825,-21.8691 31.38384,-32.55327 z"
           id="path4218"
           inkscape:connector-curvature="0"
           inkscape:original-d="M 333.21429,849.50502 294.28572,828.79073 333.21429,805.2193 Z" />
        <g
           id="g6366"
           transform="translate(203.58163,-5.0507627)">
          <path
             id="path6368"
             d="m 114.85677,718.21795 c 0,0 -6.54544,1.26707 -13.07385,2.61461 -6.528589,1.34757 -13.038495,2.77425 -13.038495,2.77425 0,0 -6.510143,1.42673 -13.000849,2.93037 -6.491021,1.50372 -12.960936,3.08298 -12.960936,3.08298 0,0 6.298821,-2.18112 12.633648,-4.29091 6.333517,-2.10936 12.701947,-4.14583 12.701947,-4.14583 0,0 6.367144,-2.03606 12.769075,-3.9967 6.40066,-1.96026 12.83504,-3.84356 12.83504,-3.84356 0,0 0.56711,2.43742 0.56711,2.43742 -2e-5,0 0.56721,2.43739 0.56723,2.43739"
             style="fill:#374548;fill-opacity:1;stroke:none;stroke-width:2;stroke-miterlimit:4;stroke-dasharray:none;stroke-dashoffset:0;stroke-opacity:1"
             inkscape:connector-curvature="0"
             inkscape:original-d="m 126.6284,744.47379 c 0,0 -24.97664,-1.25175 -24.97664,-1.25175 0,0 -24.976638,-1.25175 -24.976638,-1.25175 0,0 24.999998,-1.24825 24.999998,-1.24825 0,0 25,-1.24825 25,-1.24825 0,0 -0.0234,2.5 -0.0234,2.5 0,0 -0.0234,2.5 -0.0234,2.5" />
          <path
             id="path6370"
             d="m 116.10643,723.35459 c 0,0 -6.51359,1.25972 -13.01102,2.59956 -6.497507,1.33986 -12.977209,2.75849 -12.977209,2.75849 0,0 -6.479844,1.41866 -12.941124,2.91391 -6.461502,1.49529 -12.90277,3.06579 -12.90277,3.06579 0,0 6.270145,-2.17235 12.575427,-4.27372 6.30406,-2.10095 12.642163,-4.12934 12.642163,-4.12934 0,0 6.336909,-2.02801 12.707733,-3.98093 6.36964,-1.95257 12.77213,-3.82849 12.77213,-3.82849 0,0 0.56723,2.43739 0.56723,2.43739 -1e-5,1e-5 0.56734,2.43737 0.56735,2.43736"
             style="fill:#374548;fill-opacity:1;stroke:none;stroke-width:2;stroke-miterlimit:4;stroke-dasharray:none;stroke-dashoffset:0;stroke-opacity:1"
             inkscape:connector-curvature="0"
             inkscape:original-d="m 126.6284,749.75516 c 0,0 -24.97664,-1.25176 -24.97664,-1.25176 0,0 -24.976638,-1.25175 -24.976638,-1.25175 0,0 24.999998,-1.24825 24.999998,-1.24825 0,0 25,-1.24824 25,-1.24824 0,0 -0.0234,2.5 -0.0234,2.5 0,0 -0.0234,2.5 -0.0234,2.5" />
          <path
             id="path6372"
             d="m 117.35608,728.49122 c 0,0 -6.48173,1.25236 -12.94818,2.58452 -6.466423,1.33215 -12.915921,2.74274 -12.915921,2.74274 0,0 -6.449546,1.41059 -12.8814,2.89743 -6.431983,1.48688 -12.844606,3.04862 -12.844606,3.04862 0,0 6.24147,-2.16359 12.517208,-4.25652 6.274604,-2.09256 12.582381,-4.11286 12.582381,-4.11286 0,0 6.306673,-2.01997 12.646388,-3.96517 6.33863,-1.94488 12.70922,-3.81344 12.70922,-3.81344 0,0 0.56736,2.43736 0.56736,2.43736 -2e-5,10e-6 0.56745,2.43735 0.56746,2.43734"
             style="fill:#374548;fill-opacity:1;stroke:none;stroke-width:2;stroke-miterlimit:4;stroke-dasharray:none;stroke-dashoffset:0;stroke-opacity:1"
             inkscape:connector-curvature="0"
             inkscape:original-d="m 126.6284,755.03652 c 0,0 -24.97664,-1.25175 -24.97664,-1.25175 0,0 -24.976638,-1.25176 -24.976638,-1.25176 0,0 24.999998,-1.24824 24.999998,-1.24824 0,0 25,-1.24825 25,-1.24825 0,0 -0.0234,2.5 -0.0234,2.5 0,0 -0.0234,2.5 -0.0234,2.5" />
          <path
             id="path6374"
             d="m 118.60572,733.62785 c 0,0 -6.44986,1.24501 -12.88533,2.56947 -6.435341,1.32444 -12.854635,2.72698 -12.854635,2.72698 0,0 -6.419246,1.40253 -12.821674,2.88098 -6.402463,1.47845 -12.786438,3.03144 -12.786438,3.03144 0,0 6.212794,-2.15483 12.458984,-4.23933 6.245148,-2.08415 12.522598,-4.09639 12.522598,-4.09639 0,0 6.276437,-2.01191 12.585045,-3.9494 6.30761,-1.93718 12.64631,-3.79837 12.64631,-3.79837 0,0 0.56748,2.43733 0.56748,2.43733 -2e-5,10e-6 0.56757,2.43732 0.56758,2.43731"
             style="fill:#374548;fill-opacity:1;stroke:none;stroke-width:2;stroke-miterlimit:4;stroke-dasharray:none;stroke-dashoffset:0;stroke-opacity:1"
             inkscape:connector-curvature="0"
             inkscape:original-d="m 126.6284,760.31788 c 0,0 -24.97664,-1.25175 -24.97664,-1.25175 0,0 -24.976638,-1.25175 -24.976638,-1.25175 0,0 24.999998,-1.24825 24.999998,-1.24825 0,0 25,-1.24825 25,-1.24825 0,0 -0.0234,2.5 -0.0234,2.5 0,0 -0.0234,2.5 -0.0234,2.5" />
          <path
             id="path6376"
             d="m 119.85538,738.76449 c 0,0 -6.41801,1.23765 -12.82249,2.55442 -6.40427,1.31673 -12.79336,2.71122 -12.79336,2.71122 0,0 -6.388946,1.39446 -12.761949,2.86451 -6.372942,1.47003 -12.728272,3.01427 -12.728272,3.01427 0,0 6.184119,-2.14608 12.400764,-4.22215 6.215691,-2.07574 12.462814,-4.0799 12.462814,-4.0799 0,0 6.246202,-2.00386 12.523693,-3.93362 6.2766,-1.92949 12.58341,-3.78332 12.58341,-3.78332 0,0 0.5676,2.43731 0.5676,2.43731 -10e-6,10e-6 0.5677,2.43729 0.5677,2.43728"
             style="fill:#374548;fill-opacity:1;stroke:none;stroke-width:2;stroke-miterlimit:4;stroke-dasharray:none;stroke-dashoffset:0;stroke-opacity:1"
             inkscape:connector-curvature="0"
             inkscape:original-d="m 126.6284,765.59925 c 0,0 -24.97664,-1.25176 -24.97664,-1.25176 0,0 -24.976638,-1.25175 -24.976638,-1.25175 0,0 24.999998,-1.24825 24.999998,-1.24825 0,0 25,-1.24824 25,-1.24824 0,0 -0.0234,2.5 -0.0234,2.5 0,0 -0.0234,2.5 -0.0234,2.5" />
          <path
             id="path6378"
             d="m 121.10503,743.90112 c 0,0 -6.38615,1.23029 -12.75965,2.53938 -6.37319,1.30902 -12.732071,2.69547 -12.732071,2.69547 0,0 -6.358649,1.38639 -12.702226,2.84804 -6.343423,1.4616 -12.670107,2.99708 -12.670107,2.99708 0,0 6.155443,-2.13731 12.342544,-4.20494 6.186235,-2.06735 12.403032,-4.06342 12.403032,-4.06342 0,0 6.215968,-1.99582 12.462348,-3.91786 6.24558,-1.9218 12.52051,-3.76827 12.52051,-3.76827 0,0 0.56771,2.43728 0.56771,2.43728 -1e-5,10e-6 0.56782,2.43727 0.56782,2.43726"
             style="fill:#374548;fill-opacity:1;stroke:none;stroke-width:2;stroke-miterlimit:4;stroke-dasharray:none;stroke-dashoffset:0;stroke-opacity:1"
             inkscape:connector-curvature="0"
             inkscape:original-d="m 126.6284,770.88061 c 0,0 -24.97664,-1.25175 -24.97664,-1.25175 0,0 -24.976638,-1.25176 -24.976638,-1.25176 0,0 24.999998,-1.24824 24.999998,-1.24824 0,0 25,-1.24825 25,-1.24825 0,0 -0.0234,2.5 -0.0234,2.5 0,0 -0.0234,2.5 -0.0234,2.5" />
          <path
             id="path6380"
             d="m 122.35467,749.03774 c 0,0 -6.35428,1.22295 -12.6968,2.52434 -6.3421,1.30131 -12.670786,2.67972 -12.670786,2.67972 0,0 -6.328348,1.37833 -12.642499,2.83157 -6.313903,1.45319 -12.61194,2.97992 -12.61194,2.97992 0,0 6.126767,-2.12856 12.284321,-4.18776 6.156778,-2.05894 12.343249,-4.04694 12.343249,-4.04694 0,0 6.185725,-1.98777 12.401005,-3.9021 6.21456,-1.9141 12.4576,-3.7532 12.4576,-3.7532 0,0 0.56783,2.43725 0.56783,2.43725 -10e-6,10e-6 0.56793,2.43724 0.56794,2.43722"
             style="fill:#374548;fill-opacity:1;stroke:none;stroke-width:2;stroke-miterlimit:4;stroke-dasharray:none;stroke-dashoffset:0;stroke-opacity:1"
             inkscape:connector-curvature="0"
             inkscape:original-d="m 126.6284,776.16197 c 0,0 -24.97664,-1.25175 -24.97664,-1.25175 0,0 -24.976638,-1.25175 -24.976638,-1.25175 0,0 24.999998,-1.24825 24.999998,-1.24825 0,0 25,-1.24825 25,-1.24825 0,0 -0.0234,2.5 -0.0234,2.5 0,0 -0.0234,2.5 -0.0234,2.5" />
          <path
             id="path6382"
             d="m 123.60433,754.17438 c 0,0 -6.32243,1.21559 -12.63397,2.50929 -6.31102,1.2936 -12.6095,2.66395 -12.6095,2.66395 0,0 -6.298049,1.37027 -12.582774,2.81511 -6.284384,1.44477 -12.553774,2.96274 -12.553774,2.96274 0,0 6.098091,-2.1198 12.2261,-4.17056 6.127321,-2.05054 12.283465,-4.03047 12.283465,-4.03047 0,0 6.155493,-1.97971 12.339663,-3.88631 6.18355,-1.90641 12.39469,-3.73815 12.39469,-3.73815 0,0 0.56795,2.43722 0.56795,2.43722 -1e-5,2e-5 0.56805,2.43721 0.56807,2.4372"
             style="fill:#374548;fill-opacity:1;stroke:none;stroke-width:2;stroke-miterlimit:4;stroke-dasharray:none;stroke-dashoffset:0;stroke-opacity:1"
             inkscape:connector-curvature="0"
             inkscape:original-d="m 126.6284,781.44334 c 0,0 -24.97664,-1.25176 -24.97664,-1.25176 0,0 -24.976638,-1.25175 -24.976638,-1.25175 0,0 24.999998,-1.24825 24.999998,-1.24825 0,0 25,-1.24824 25,-1.24824 0,0 -0.0234,2.5 -0.0234,2.5 0,0 -0.0234,2.5 -0.0234,2.5" />
          <path
             id="path6384"
             d="m 124.85397,759.31101 c 0,0 -6.29056,1.20823 -12.57111,2.49425 -6.27995,1.28589 -12.548222,2.6482 -12.548222,2.6482 0,0 -6.26775,1.36219 -12.523051,2.79864 -6.254864,1.43634 -12.495609,2.94556 -12.495609,2.94556 0,0 6.069417,-2.11104 12.167881,-4.15337 6.097865,-2.04213 12.223683,-4.01398 12.223683,-4.01398 0,0 6.125258,-1.97167 12.278318,-3.87055 6.15253,-1.89872 12.33178,-3.72309 12.33178,-3.72309 0,0 0.56807,2.43719 0.56807,2.43719 -10e-6,10e-6 0.56817,2.43718 0.56819,2.43717"
             style="fill:#374548;fill-opacity:1;stroke:none;stroke-width:2;stroke-miterlimit:4;stroke-dasharray:none;stroke-dashoffset:0;stroke-opacity:1"
             inkscape:connector-curvature="0"
             inkscape:original-d="m 126.6284,786.7247 c 0,0 -24.97664,-1.25175 -24.97664,-1.25175 0,0 -24.976638,-1.25176 -24.976638,-1.25176 0,0 24.999998,-1.24824 24.999998,-1.24824 0,0 25,-1.24825 25,-1.24825 0,0 -0.0234,2.5 -0.0234,2.5 0,0 -0.0234,2.5 -0.0234,2.5" />
          <path
             id="path6386"
             d="m 126.10362,764.44764 c 0,0 -6.2587,1.20088 -12.50827,2.4792 -6.24887,1.27818 -12.48694,2.63245 -12.48694,2.63245 0,0 -6.237447,1.35413 -12.463321,2.78218 -6.225343,1.42792 -12.437441,2.92838 -12.437441,2.92838 0,0 6.04074,-2.10228 12.109657,-4.13618 6.068409,-2.03373 12.163895,-3.9975 12.163895,-3.9975 0,0 6.09503,-1.96363 12.21698,-3.85479 6.12151,-1.89102 12.26887,-3.70803 12.26887,-3.70803 0,0 0.56819,2.43717 0.56819,2.43717 -1e-5,10e-6 0.56829,2.43715 0.5683,2.43714"
             style="fill:#374548;fill-opacity:1;stroke:none;stroke-width:2;stroke-miterlimit:4;stroke-dasharray:none;stroke-dashoffset:0;stroke-opacity:1"
             inkscape:connector-curvature="0"
             inkscape:original-d="m 126.6284,792.00606 c 0,0 -24.97664,-1.25175 -24.97664,-1.25175 0,0 -24.976638,-1.25175 -24.976638,-1.25175 0,0 24.999998,-1.24825 24.999998,-1.24825 0,0 25,-1.24825 25,-1.24825 0,0 -0.0234,2.5 -0.0234,2.5 0,0 -0.0234,2.5 -0.0234,2.5" />
          <path
             id="path6388"
             d="m 127.35328,769.58428 c 0,0 -6.22685,1.19352 -12.44544,2.46415 -6.21778,1.27047 -12.42565,2.61669 -12.42565,2.61669 0,0 -6.207152,1.34606 -12.4036,2.76571 -6.195824,1.4195 -12.379276,2.91121 -12.379276,2.91121 0,0 6.012065,-2.09352 12.051437,-4.11899 6.038952,-2.02533 12.104119,-3.98102 12.104119,-3.98102 0,0 6.06478,-1.95558 12.15563,-3.83901 6.09049,-1.88334 12.20597,-3.69298 12.20597,-3.69298 0,0 0.5683,2.43714 0.5683,2.43714 0,2e-5 0.56842,2.43713 0.56843,2.43712"
             style="fill:#374548;fill-opacity:1;stroke:none;stroke-width:2;stroke-miterlimit:4;stroke-dasharray:none;stroke-dashoffset:0;stroke-opacity:1"
             inkscape:connector-curvature="0"
             inkscape:original-d="m 126.6284,797.28743 c 0,0 -24.97664,-1.25176 -24.97664,-1.25176 0,0 -24.976638,-1.25175 -24.976638,-1.25175 0,0 24.999998,-1.24825 24.999998,-1.24825 0,0 25,-1.24824 25,-1.24824 0,0 -0.0234,2.5 -0.0234,2.5 0,0 -0.0234,2.5 -0.0234,2.5" />
          <path
             id="path6390"
             d="m 128.60292,774.72091 c 0,0 -6.19499,1.18617 -12.38258,2.44911 -6.18671,1.26276 -12.36437,2.60093 -12.36437,2.60093 0,0 -6.176855,1.338 -12.343878,2.74924 -6.166305,1.41108 -12.321111,2.89403 -12.321111,2.89403 0,0 5.983389,-2.08476 11.993217,-4.10179 6.009496,-2.01692 12.044332,-3.96454 12.044332,-3.96454 0,0 6.03455,-1.94752 12.09428,-3.82324 6.05948,-1.87565 12.14307,-3.67792 12.14307,-3.67792 0,0 0.56842,2.43711 0.56842,2.43711 0,10e-6 0.56854,2.4371 0.56855,2.43709"
             style="fill:#374548;fill-opacity:1;stroke:none;stroke-width:2;stroke-miterlimit:4;stroke-dasharray:none;stroke-dashoffset:0;stroke-opacity:1"
             inkscape:connector-curvature="0"
             inkscape:original-d="m 126.6284,802.56879 c 0,0 -24.97664,-1.25175 -24.97664,-1.25175 0,0 -24.976638,-1.25176 -24.976638,-1.25176 0,0 24.999998,-1.24824 24.999998,-1.24824 0,0 25,-1.24825 25,-1.24825 0,0 -0.0234,2.5 -0.0234,2.5 0,0 -0.0234,2.5 -0.0234,2.5" />
          <path
             id="path6392"
             d="m 129.85257,779.85754 c 0,0 -6.16313,1.17881 -12.31974,2.43406 -6.15563,1.25505 -12.30309,2.58518 -12.30309,2.58518 0,0 -6.14655,1.32993 -12.284146,2.73278 -6.136784,1.40266 -12.262944,2.87686 -12.262944,2.87686 0,0 5.954713,-2.07601 11.934994,-4.08461 5.98004,-2.00852 11.984546,-3.94806 11.984546,-3.94806 0,0 6.00432,-1.93948 12.03294,-3.80748 6.02846,-1.86795 12.08016,-3.66286 12.08016,-3.66286 0,0 0.56855,2.43709 0.56855,2.43709 -1e-5,1e-5 0.56865,2.43707 0.56866,2.43706"
             style="fill:#374548;fill-opacity:1;stroke:none;stroke-width:2;stroke-miterlimit:4;stroke-dasharray:none;stroke-dashoffset:0;stroke-opacity:1"
             inkscape:connector-curvature="0"
             inkscape:original-d="m 126.6284,807.85015 c 0,0 -24.97664,-1.25175 -24.97664,-1.25175 0,0 -24.976638,-1.25175 -24.976638,-1.25175 0,0 24.999998,-1.24825 24.999998,-1.24825 0,0 25,-1.24825 25,-1.24825 0,0 -0.0234,2.5 -0.0234,2.5 0,0 -0.0234,2.5 -0.0234,2.5" />
          <path
             id="path6394"
             d="m 131.10222,784.99418 c 0,0 -6.13127,1.17145 -12.2569,2.41901 -6.12454,1.24733 -12.2418,2.56942 -12.2418,2.56942 0,0 -6.11625,1.32186 -12.224426,2.71631 -6.107264,1.39424 -12.204777,2.85968 -12.204777,2.85968 0,0 5.926037,-2.06724 11.876773,-4.06741 5.95058,-2.00012 11.92477,-3.93158 11.92477,-3.93158 0,0 5.97408,-1.93143 11.97159,-3.79171 5.99745,-1.86025 12.01725,-3.64779 12.01725,-3.64779 0,0 0.56867,2.43705 0.56867,2.43705 -1e-5,2e-5 0.56877,2.43705 0.56878,2.43704"
             style="fill:#374548;fill-opacity:1;stroke:none;stroke-width:2;stroke-miterlimit:4;stroke-dasharray:none;stroke-dashoffset:0;stroke-opacity:1"
             inkscape:connector-curvature="0"
             inkscape:original-d="m 126.6284,813.13152 c 0,0 -24.97664,-1.25176 -24.97664,-1.25176 0,0 -24.976638,-1.25175 -24.976638,-1.25175 0,0 24.999998,-1.24825 24.999998,-1.24825 0,0 25,-1.24824 25,-1.24824 0,0 -0.0234,2.5 -0.0234,2.5 0,0 -0.0234,2.5 -0.0234,2.5" />
          <path
             id="path6396"
             d="m 132.35187,790.13081 c 0,0 -6.09941,1.1641 -12.19406,2.40397 -6.09346,1.23963 -12.18051,2.55367 -12.18051,2.55367 0,0 -6.08596,1.31379 -12.164704,2.69984 -6.077745,1.38581 -12.146613,2.8425 -12.146613,2.8425 0,0 5.897363,-2.05849 11.818554,-4.05022 5.921123,-1.99171 11.864983,-3.91509 11.864983,-3.91509 0,0 5.94385,-1.92339 11.91025,-3.77594 5.96643,-1.85257 11.95434,-3.63275 11.95434,-3.63275 0,0 0.56879,2.43703 0.56879,2.43703 -1e-5,1e-5 0.56889,2.43702 0.5689,2.43701"
             style="fill:#374548;fill-opacity:1;stroke:none;stroke-width:2;stroke-miterlimit:4;stroke-dasharray:none;stroke-dashoffset:0;stroke-opacity:1"
             inkscape:connector-curvature="0"
             inkscape:original-d="m 126.6284,818.41288 c 0,0 -24.97664,-1.25175 -24.97664,-1.25175 0,0 -24.976638,-1.25176 -24.976638,-1.25176 0,0 24.999998,-1.24824 24.999998,-1.24824 0,0 25,-1.24825 25,-1.24825 0,0 -0.0234,2.5 -0.0234,2.5 0,0 -0.0234,2.5 -0.0234,2.5" />
          <path
             id="path6398"
             d="m 133.60152,795.26744 c 0,0 -6.06755,1.15674 -12.13121,2.38892 -6.06239,1.23192 -12.11924,2.53791 -12.11924,2.53791 0,0 -6.05565,1.30574 -12.104972,2.68338 -6.048224,1.3774 -12.088445,2.82533 -12.088445,2.82533 0,0 5.868686,-2.04972 11.76033,-4.03303 5.891667,-1.98331 11.805197,-3.89862 11.805197,-3.89862 0,0 5.91361,-1.91533 11.84891,-3.76017 5.93541,-1.84487 11.89143,-3.61769 11.89143,-3.61769 0,0 0.56891,2.43701 0.56891,2.43701 -1e-5,1e-5 0.56901,2.43699 0.56902,2.43697"
             style="fill:#374548;fill-opacity:1;stroke:none;stroke-width:2;stroke-miterlimit:4;stroke-dasharray:none;stroke-dashoffset:0;stroke-opacity:1"
             inkscape:connector-curvature="0"
             inkscape:original-d="m 126.6284,823.69424 c 0,0 -24.97664,-1.25175 -24.97664,-1.25175 0,0 -24.976638,-1.25175 -24.976638,-1.25175 0,0 24.999998,-1.24825 24.999998,-1.24825 0,0 25,-1.24825 25,-1.24825 0,0 -0.0234,2.5 -0.0234,2.5 0,0 -0.0234,2.5 -0.0234,2.5" />
          <path
             id="path6400"
             d="m 134.85117,800.40407 c 0,0 -6.03569,1.14939 -12.06837,2.37388 -6.03131,1.2242 -12.05795,2.52215 -12.05795,2.52215 0,0 -6.02536,1.29767 -12.045251,2.66691 -6.018705,1.36898 -12.03028,2.80816 -12.03028,2.80816 0,0 5.840011,-2.04097 11.70211,-4.01584 5.862211,-1.97491 11.745421,-3.88214 11.745421,-3.88214 0,0 5.88337,-1.90728 11.78756,-3.7444 5.90439,-1.83717 11.82853,-3.60262 11.82853,-3.60262 0,0 0.56902,2.43697 0.56902,2.43697 0,10e-6 0.56913,2.43696 0.56914,2.43695"
             style="fill:#374548;fill-opacity:1;stroke:none;stroke-width:2;stroke-miterlimit:4;stroke-dasharray:none;stroke-dashoffset:0;stroke-opacity:1"
             inkscape:connector-curvature="0"
             inkscape:original-d="m 126.6284,828.97561 c 0,0 -24.97664,-1.25176 -24.97664,-1.25176 0,0 -24.976638,-1.25175 -24.976638,-1.25175 0,0 24.999998,-1.24825 24.999998,-1.24825 0,0 25,-1.24824 25,-1.24824 0,0 -0.0234,2.5 -0.0234,2.5 0,0 -0.0234,2.5 -0.0234,2.5" />
          <path
             id="path6402"
             d="m 136.10082,805.5407 c 0,0 -6.00383,1.14204 -12.00553,2.35884 -6.00022,1.21649 -11.99666,2.5064 -11.99666,2.5064 0,0 -5.99506,1.2896 -11.98553,2.65044 -5.989184,1.36055 -11.972114,2.79097 -11.972114,2.79097 0,0 5.811335,-2.0322 11.64389,-3.99864 5.832754,-1.9665 11.685634,-3.86565 11.685634,-3.86565 0,0 5.85314,-1.89924 11.72622,-3.72863 5.87337,-1.82949 11.76562,-3.58758 11.76562,-3.58758 0,0 0.56914,2.43695 0.56914,2.43695 -1e-5,10e-6 0.56925,2.43693 0.56926,2.43692"
             style="fill:#374548;fill-opacity:1;stroke:none;stroke-width:2;stroke-miterlimit:4;stroke-dasharray:none;stroke-dashoffset:0;stroke-opacity:1"
             inkscape:connector-curvature="0"
             inkscape:original-d="m 126.6284,834.25697 c 0,0 -24.97664,-1.25175 -24.97664,-1.25175 0,0 -24.976638,-1.25176 -24.976638,-1.25176 0,0 24.999998,-1.24824 24.999998,-1.24824 0,0 25,-1.24825 25,-1.24825 0,0 -0.0234,2.5 -0.0234,2.5 0,0 -0.0234,2.5 -0.0234,2.5" />
          <path
             id="path6404"
             d="m 137.35047,810.67733 c 0,0 -5.97197,1.13468 -11.94269,2.34379 -5.96914,1.20879 -11.93538,2.49064 -11.93538,2.49064 0,0 -5.96475,1.28154 -11.9258,2.63399 -5.959662,1.35213 -11.913945,2.7738 -11.913945,2.7738 0,0 5.782659,-2.02345 11.585665,-3.98146 5.8033,-1.9581 11.62585,-3.84917 11.62585,-3.84917 0,0 5.8229,-1.89119 11.66487,-3.71287 5.84237,-1.82179 11.70272,-3.57251 11.70272,-3.57251 0,0 0.56926,2.43692 0.56926,2.43692 0,10e-6 0.56937,2.4369 0.56938,2.43689"
             style="fill:#374548;fill-opacity:1;stroke:none;stroke-width:2;stroke-miterlimit:4;stroke-dasharray:none;stroke-dashoffset:0;stroke-opacity:1"
             inkscape:connector-curvature="0"
             inkscape:original-d="m 126.6284,839.53833 c 0,0 -24.97664,-1.25175 -24.97664,-1.25175 0,0 -24.976638,-1.25175 -24.976638,-1.25175 0,0 24.999998,-1.24825 24.999998,-1.24825 0,0 25,-1.24825 25,-1.24825 0,0 -0.0234,2.5 -0.0234,2.5 0,0 -0.0234,2.5 -0.0234,2.5" />
          <path
             id="path6406"
             d="m 138.60012,815.81397 c 0,0 -5.94011,1.12733 -11.87984,2.32874 -5.93807,1.20107 -11.8741,2.47488 -11.8741,2.47488 0,0 -5.93446,1.27347 -11.86608,2.61752 -5.930141,1.34371 -11.855778,2.75662 -11.855778,2.75662 0,0 5.753983,-2.01469 11.527448,-3.96426 5.77384,-1.9497 11.56607,-3.8327 11.56607,-3.8327 0,0 5.79266,-1.88314 11.60352,-3.69709 5.81135,-1.8141 11.63981,-3.55745 11.63981,-3.55745 0,0 0.56938,2.43689 0.56938,2.43689 0,10e-6 0.56949,2.43688 0.5695,2.43687"
             style="fill:#374548;fill-opacity:1;stroke:none;stroke-width:2;stroke-miterlimit:4;stroke-dasharray:none;stroke-dashoffset:0;stroke-opacity:1"
             inkscape:connector-curvature="0"
             inkscape:original-d="m 126.6284,844.8197 c 0,0 -24.97664,-1.25176 -24.97664,-1.25176 0,0 -24.976638,-1.25175 -24.976638,-1.25175 0,0 24.999998,-1.24825 24.999998,-1.24825 0,0 25,-1.24824 25,-1.24824 0,0 -0.0234,2.5 -0.0234,2.5 0,0 -0.0234,2.5 -0.0234,2.5" />
          <path
             id="path6408"
             d="m 139.84977,820.9506 c 0,0 -5.90825,1.11997 -11.817,2.3137 -5.90698,1.19336 -11.81281,2.45913 -11.81281,2.45913 0,0 -5.90416,1.2654 -11.80635,2.60104 -5.90063,1.33529 -11.797622,2.73945 -11.797622,2.73945 0,0 5.725308,-2.00593 11.469222,-3.94707 5.74439,-1.94129 11.50629,-3.81621 11.50629,-3.81621 0,0 5.76243,-1.87509 11.54218,-3.68133 5.78033,-1.80641 11.5769,-3.5424 11.5769,-3.5424 0,0 0.5695,2.43687 0.5695,2.43687 -1e-5,0 0.5696,2.43684 0.56962,2.43684"
             style="fill:#374548;fill-opacity:1;stroke:none;stroke-width:2;stroke-miterlimit:4;stroke-dasharray:none;stroke-dashoffset:0;stroke-opacity:1"
             inkscape:connector-curvature="0"
             inkscape:original-d="m 126.6284,850.10106 c 0,0 -24.97664,-1.25175 -24.97664,-1.25175 0,0 -24.976638,-1.25176 -24.976638,-1.25176 0,0 24.999998,-1.24824 24.999998,-1.24824 0,0 25,-1.24825 25,-1.24825 0,0 -0.0234,2.5 -0.0234,2.5 0,0 -0.0234,2.5 -0.0234,2.5" />
          <path
             id="path6410"
             d="m 141.09942,826.08723 c 0,0 -5.87639,1.11262 -11.75416,2.29865 -5.8759,1.18566 -11.75153,2.44338 -11.75153,2.44338 0,0 -5.87386,1.25733 -11.74662,2.58458 -5.871108,1.32687 -11.739452,2.72227 -11.739452,2.72227 0,0 5.696631,-1.99717 11.411002,-3.92988 5.71493,-1.93289 11.4465,-3.79973 11.4465,-3.79973 0,0 5.7322,-1.86705 11.48084,-3.66556 5.74931,-1.79872 11.51399,-3.52734 11.51399,-3.52734 0,0 0.56962,2.43684 0.56962,2.43684 -1e-5,0 0.56972,2.43681 0.56974,2.43681"
             style="fill:#374548;fill-opacity:1;stroke:none;stroke-width:2;stroke-miterlimit:4;stroke-dasharray:none;stroke-dashoffset:0;stroke-opacity:1"
             inkscape:connector-curvature="0"
             inkscape:original-d="m 126.6284,855.38242 c 0,0 -24.97664,-1.25175 -24.97664,-1.25175 0,0 -24.976638,-1.25175 -24.976638,-1.25175 0,0 24.999998,-1.24825 24.999998,-1.24825 0,0 25,-1.24825 25,-1.24825 0,0 -0.0234,2.5 -0.0234,2.5 0,0 -0.0234,2.5 -0.0234,2.5" />
        </g>
        <path
           sodipodi:nodetypes="cccccc"
           inkscape:connector-curvature="0"
           id="path6789"
           d="m 824.01251,737.56547 c -33.45609,-14.05034 -67.8861,-25.49932 -102.92448,-34.36796 l -28.43561,112.46776 c 29.52901,7.45229 58.42559,17.06635 86.3242,28.86317 -3.77574,-22.5526 -8.83388,-45.20329 -15.14448,-67.85129 19.08233,-13.84805 39.14852,-26.91994 60.18037,-39.11168 z"
           style="fill:#37c8ab;fill-opacity:1;stroke:#374548;stroke-width:0.94265866;stroke-miterlimit:4;stroke-dasharray:none;stroke-dashoffset:0;stroke-opacity:1"
           inkscape:original-d="m 805.20895,733.76835 -99.05734,0 0,116.05735 99.05734,0 -40,-57.90433 z" />
        <path
           inkscape:connector-curvature="0"
           id="path6791"
           d="m 693.05256,815.80398 c 13.29793,-3.75368 26.88439,-7.07388 40.73917,-9.92472 -9.40057,-11.21435 -19.36187,-22.22164 -29.85945,-32.98376 z"
           style="fill:#374548;fill-opacity:1;fill-rule:evenodd;stroke:none;stroke-width:1px;stroke-linecap:butt;stroke-linejoin:miter;stroke-opacity:1"
           inkscape:original-d="M 706.6091,849.86216 745.53767,829.14787 706.6091,805.57644 Z" />
        <g
           transform="matrix(-1,0,0,1,834.94896,-5.5630494)"
           id="g6793">
          <path
             inkscape:connector-curvature="0"
             style="fill:#374548;fill-opacity:1;stroke:none;stroke-width:2;stroke-miterlimit:4;stroke-dasharray:none;stroke-dashoffset:0;stroke-opacity:1"
             d="m 112.83621,714.32602 c 0,0 -6.65191,1.3832 -13.285921,2.89219 -6.632874,1.50873 -13.24516,3.14329 -13.24516,3.14329 0,0 -6.61111,1.63424 -13.200039,3.39528 -6.587696,1.76071 -13.150563,3.64818 -13.150563,3.64818 0,0 6.368002,-2.4811 12.785113,-4.8429 6.416694,-2.36164 12.879759,-4.60339 12.879759,-4.60339 0,0 6.462605,-2.2416 12.969961,-4.36348 6.50687,-2.12173 13.05572,-4.12319 13.05572,-4.12319 0,0 0.59544,2.42704 0.59544,2.42704 0,0 0.59561,2.427 0.59561,2.427"
             id="path6795"
             inkscape:original-d="m 126.6284,744.47379 c 0,0 -24.97664,-1.25175 -24.97664,-1.25175 0,0 -24.976638,-1.25175 -24.976638,-1.25175 0,0 24.999998,-1.24825 24.999998,-1.24825 0,0 25,-1.24825 25,-1.24825 0,0 -0.0234,2.5 -0.0234,2.5 0,0 -0.0234,2.5 -0.0234,2.5" />
          <path
             inkscape:connector-curvature="0"
             style="fill:#374548;fill-opacity:1;stroke:none;stroke-width:2;stroke-miterlimit:4;stroke-dasharray:none;stroke-dashoffset:0;stroke-opacity:1"
             d="m 114.14669,719.43978 c 0,0 -6.60452,1.37085 -13.19103,2.86658 -6.585425,1.49549 -13.150165,3.11587 -13.150165,3.11587 0,0 -6.563609,1.62009 -13.104938,3.36605 -6.540142,1.74564 -13.055356,3.61712 -13.055356,3.61712 0,0 6.320306,-2.46509 12.689817,-4.81182 6.369051,-2.34655 12.784568,-4.57412 12.784568,-4.57412 0,0 6.415017,-2.22742 12.874877,-4.33604 6.459327,-2.10846 12.960737,-4.09757 12.960737,-4.09757 0,0 0.59562,2.427 0.59562,2.427 0,0 0.59578,2.42695 0.59578,2.42695"
             id="path6797"
             inkscape:original-d="m 126.6284,749.75516 c 0,0 -24.97664,-1.25176 -24.97664,-1.25176 0,0 -24.976638,-1.25175 -24.976638,-1.25175 0,0 24.999998,-1.24825 24.999998,-1.24825 0,0 25,-1.24824 25,-1.24824 0,0 -0.0234,2.5 -0.0234,2.5 0,0 -0.0234,2.5 -0.0234,2.5" />
          <path
             inkscape:connector-curvature="0"
             style="fill:#374548;fill-opacity:1;stroke:none;stroke-width:2;stroke-miterlimit:4;stroke-dasharray:none;stroke-dashoffset:0;stroke-opacity:1"
             d="m 115.45716,724.55353 c 0,0 -6.55711,1.35851 -13.09613,2.84099 -6.537973,1.48223 -13.055167,3.08845 -13.055167,3.08845 0,0 -6.516107,1.60593 -13.009836,3.33681 -6.492589,1.73057 -12.960151,3.58607 -12.960151,3.58607 0,0 6.27261,-2.44909 12.594522,-4.78073 6.321408,-2.33146 12.689379,-4.54487 12.689379,-4.54487 0,0 6.367426,-2.21324 12.779793,-4.30861 6.41179,-2.09518 12.86575,-4.07195 12.86575,-4.07195 0,0 0.5958,2.42695 0.5958,2.42695 0,0 0.59596,2.42691 0.59596,2.42691"
             id="path6799"
             inkscape:original-d="m 126.6284,755.03652 c 0,0 -24.97664,-1.25175 -24.97664,-1.25175 0,0 -24.976638,-1.25176 -24.976638,-1.25176 0,0 24.999998,-1.24824 24.999998,-1.24824 0,0 25,-1.24825 25,-1.24825 0,0 -0.0234,2.5 -0.0234,2.5 0,0 -0.0234,2.5 -0.0234,2.5" />
          <path
             inkscape:connector-curvature="0"
             style="fill:#374548;fill-opacity:1;stroke:none;stroke-width:2;stroke-miterlimit:4;stroke-dasharray:none;stroke-dashoffset:0;stroke-opacity:1"
             d="m 116.76764,729.66728 c 0,0 -6.50972,1.34617 -13.00125,2.81538 -6.490514,1.46899 -12.960162,3.06104 -12.960162,3.06104 0,0 -6.468604,1.59178 -12.914732,3.30758 -6.445034,1.71551 -12.864943,3.55503 -12.864943,3.55503 0,0 6.224914,-2.4331 12.499225,-4.74966 6.273764,-2.31637 12.594186,-4.51562 12.594186,-4.51562 0,0 6.319837,-2.19905 12.684706,-4.28116 6.36425,-2.08192 12.77077,-4.04634 12.77077,-4.04634 0,0 0.59597,2.42691 0.59597,2.42691 0,0 0.59614,2.42686 0.59614,2.42686"
             id="path6801"
             inkscape:original-d="m 126.6284,760.31788 c 0,0 -24.97664,-1.25175 -24.97664,-1.25175 0,0 -24.976638,-1.25175 -24.976638,-1.25175 0,0 24.999998,-1.24825 24.999998,-1.24825 0,0 25,-1.24825 25,-1.24825 0,0 -0.0234,2.5 -0.0234,2.5 0,0 -0.0234,2.5 -0.0234,2.5" />
          <path
             inkscape:connector-curvature="0"
             style="fill:#374548;fill-opacity:1;stroke:none;stroke-width:2;stroke-miterlimit:4;stroke-dasharray:none;stroke-dashoffset:0;stroke-opacity:1"
             d="m 118.07811,734.78104 c 0,0 -6.46231,1.33383 -12.90635,2.78978 -6.443064,1.45573 -12.865166,3.03361 -12.865166,3.03361 0,0 -6.421103,1.57762 -12.819631,3.27835 -6.39748,1.70044 -12.769736,3.52398 -12.769736,3.52398 0,0 6.177218,-2.4171 12.40393,-4.71859 6.22612,-2.30127 12.498995,-4.48635 12.498995,-4.48635 0,0 6.272248,-2.18487 12.589618,-4.25373 6.31672,-2.06864 12.67579,-4.0207 12.67579,-4.0207 0,0 0.59615,2.42685 0.59615,2.42685 0,0 0.59632,2.42682 0.59632,2.42682"
             id="path6803"
             inkscape:original-d="m 126.6284,765.59925 c 0,0 -24.97664,-1.25176 -24.97664,-1.25176 0,0 -24.976638,-1.25175 -24.976638,-1.25175 0,0 24.999998,-1.24825 24.999998,-1.24825 0,0 25,-1.24824 25,-1.24824 0,0 -0.0234,2.5 -0.0234,2.5 0,0 -0.0234,2.5 -0.0234,2.5" />
          <path
             inkscape:connector-curvature="0"
             style="fill:#374548;fill-opacity:1;stroke:none;stroke-width:2;stroke-miterlimit:4;stroke-dasharray:none;stroke-dashoffset:0;stroke-opacity:1"
             d="m 119.38859,739.89479 c 0,0 -6.41492,1.32149 -12.81146,2.76418 -6.39561,1.44249 -12.770168,3.0062 -12.770168,3.0062 0,0 -6.373601,1.56346 -12.72453,3.24911 -6.349926,1.68538 -12.674531,3.49292 -12.674531,3.49292 0,0 6.129524,-2.40108 12.308636,-4.6875 6.178477,-2.28618 12.403805,-4.45709 12.403805,-4.45709 0,0 6.224658,-2.17069 12.494528,-4.22629 6.26918,-2.05537 12.58081,-3.99509 12.58081,-3.99509 0,0 0.59633,2.42681 0.59633,2.42681 0,0 0.5965,2.42677 0.5965,2.42677"
             id="path6805"
             inkscape:original-d="m 126.6284,770.88061 c 0,0 -24.97664,-1.25175 -24.97664,-1.25175 0,0 -24.976638,-1.25176 -24.976638,-1.25176 0,0 24.999998,-1.24824 24.999998,-1.24824 0,0 25,-1.24825 25,-1.24825 0,0 -0.0234,2.5 -0.0234,2.5 0,0 -0.0234,2.5 -0.0234,2.5" />
          <path
             inkscape:connector-curvature="0"
             style="fill:#374548;fill-opacity:1;stroke:none;stroke-width:2;stroke-miterlimit:4;stroke-dasharray:none;stroke-dashoffset:0;stroke-opacity:1"
             d="m 120.69906,745.00854 c 0,0 -6.36752,1.30914 -12.71656,2.73858 -6.34816,1.42924 -12.675173,2.97878 -12.675173,2.97878 0,0 -6.326098,1.54931 -12.629426,3.21988 -6.302372,1.67032 -12.579323,3.46188 -12.579323,3.46188 0,0 6.081827,-2.38509 12.213339,-4.65643 6.130833,-2.27109 12.308613,-4.42783 12.308613,-4.42783 0,0 6.17707,-2.15652 12.39944,-4.19886 6.22165,-2.0421 12.48583,-3.96947 12.48583,-3.96947 0,0 0.59651,2.42676 0.59651,2.42676 0,0 0.59667,2.42673 0.59667,2.42673"
             id="path6807"
             inkscape:original-d="m 126.6284,776.16197 c 0,0 -24.97664,-1.25175 -24.97664,-1.25175 0,0 -24.976638,-1.25175 -24.976638,-1.25175 0,0 24.999998,-1.24825 24.999998,-1.24825 0,0 25,-1.24825 25,-1.24825 0,0 -0.0234,2.5 -0.0234,2.5 0,0 -0.0234,2.5 -0.0234,2.5" />
          <path
             inkscape:connector-curvature="0"
             style="fill:#374548;fill-opacity:1;stroke:none;stroke-width:2;stroke-miterlimit:4;stroke-dasharray:none;stroke-dashoffset:0;stroke-opacity:1"
             d="m 122.00954,750.12229 c 0,0 -6.32012,1.29681 -12.62167,2.71298 -6.30071,1.41599 -12.580177,2.95136 -12.580177,2.95136 0,0 -6.278596,1.53516 -12.534324,3.19065 -6.254818,1.65525 -12.484117,3.43083 -12.484117,3.43083 0,0 6.034132,-2.36909 12.118044,-4.62535 6.083189,-2.256 12.213421,-4.39858 12.213421,-4.39858 0,0 6.129483,-2.14233 12.304363,-4.17141 6.1741,-2.02883 12.39084,-3.94385 12.39084,-3.94385 0,0 0.59669,2.42672 0.59669,2.42672 0,0 0.59685,2.42668 0.59685,2.42668"
             id="path6809"
             inkscape:original-d="m 126.6284,781.44334 c 0,0 -24.97664,-1.25176 -24.97664,-1.25176 0,0 -24.976638,-1.25175 -24.976638,-1.25175 0,0 24.999998,-1.24825 24.999998,-1.24825 0,0 25,-1.24824 25,-1.24824 0,0 -0.0234,2.5 -0.0234,2.5 0,0 -0.0234,2.5 -0.0234,2.5" />
          <path
             inkscape:connector-curvature="0"
             style="fill:#374548;fill-opacity:1;stroke:none;stroke-width:2;stroke-miterlimit:4;stroke-dasharray:none;stroke-dashoffset:0;stroke-opacity:1"
             d="m 123.32001,755.23604 c 0,0 -6.27272,1.28447 -12.52677,2.68739 -6.25326,1.40273 -12.485179,2.92394 -12.485179,2.92394 0,0 -6.231095,1.521 -12.439223,3.16141 -6.207265,1.64019 -12.388912,3.39977 -12.388912,3.39977 0,0 5.986437,-2.35308 12.02275,-4.59426 6.035546,-2.2409 12.118232,-4.36932 12.118232,-4.36932 0,0 6.081892,-2.12815 12.209272,-4.14397 6.12657,-2.01556 12.29586,-3.91824 12.29586,-3.91824 0,0 0.59686,2.42667 0.59686,2.42667 0,0 0.59703,2.42663 0.59703,2.42663"
             id="path6811"
             inkscape:original-d="m 126.6284,786.7247 c 0,0 -24.97664,-1.25175 -24.97664,-1.25175 0,0 -24.976638,-1.25176 -24.976638,-1.25176 0,0 24.999998,-1.24824 24.999998,-1.24824 0,0 25,-1.24825 25,-1.24825 0,0 -0.0234,2.5 -0.0234,2.5 0,0 -0.0234,2.5 -0.0234,2.5" />
          <path
             inkscape:connector-curvature="0"
             style="fill:#374548;fill-opacity:1;stroke:none;stroke-width:2;stroke-miterlimit:4;stroke-dasharray:none;stroke-dashoffset:0;stroke-opacity:1"
             d="m 124.63049,760.34979 c 0,0 -6.22532,1.27213 -12.43188,2.66178 -6.20581,1.38949 -12.390184,2.89653 -12.390184,2.89653 0,0 -6.183592,1.50685 -12.344119,3.13218 -6.15971,1.62513 -12.293703,3.36873 -12.293703,3.36873 0,0 5.93874,-2.33708 11.927452,-4.56319 5.987902,-2.22581 12.023039,-4.34006 12.023039,-4.34006 0,0 6.034305,-2.11397 12.114185,-4.11654 6.07903,-2.00229 12.20088,-3.89262 12.20088,-3.89262 0,0 0.59704,2.42663 0.59704,2.42663 0,0 0.59721,2.42658 0.59721,2.42658"
             id="path6813"
             inkscape:original-d="m 126.6284,792.00606 c 0,0 -24.97664,-1.25175 -24.97664,-1.25175 0,0 -24.976638,-1.25175 -24.976638,-1.25175 0,0 24.999998,-1.24825 24.999998,-1.24825 0,0 25,-1.24825 25,-1.24825 0,0 -0.0234,2.5 -0.0234,2.5 0,0 -0.0234,2.5 -0.0234,2.5" />
          <path
             inkscape:connector-curvature="0"
             style="fill:#374548;fill-opacity:1;stroke:none;stroke-width:2;stroke-miterlimit:4;stroke-dasharray:none;stroke-dashoffset:0;stroke-opacity:1"
             d="m 125.94096,765.46355 c 0,0 -6.17792,1.25978 -12.33699,2.63618 -6.15835,1.37623 -12.29518,2.86911 -12.29518,2.86911 0,0 -6.136088,1.49268 -12.249016,3.10294 -6.112155,1.61006 -12.198496,3.33768 -12.198496,3.33768 0,0 5.891044,-2.32108 11.832156,-4.53212 5.940259,-2.21072 11.927846,-4.3108 11.927846,-4.3108 0,0 5.98671,-2.09978 12.0191,-4.08909 6.0315,-1.98901 12.1059,-3.867 12.1059,-3.867 0,0 0.59722,2.42658 0.59722,2.42658 0,0 0.59738,2.42654 0.59738,2.42654"
             id="path6815"
             inkscape:original-d="m 126.6284,797.28743 c 0,0 -24.97664,-1.25176 -24.97664,-1.25176 0,0 -24.976638,-1.25175 -24.976638,-1.25175 0,0 24.999998,-1.24825 24.999998,-1.24825 0,0 25,-1.24824 25,-1.24824 0,0 -0.0234,2.5 -0.0234,2.5 0,0 -0.0234,2.5 -0.0234,2.5" />
          <path
             inkscape:connector-curvature="0"
             style="fill:#374548;fill-opacity:1;stroke:none;stroke-width:2;stroke-miterlimit:4;stroke-dasharray:none;stroke-dashoffset:0;stroke-opacity:1"
             d="m 127.25144,770.5773 c 0,0 -6.13052,1.24744 -12.2421,2.61058 -6.1109,1.36299 -12.20018,2.8417 -12.20018,2.8417 0,0 -6.088589,1.47852 -12.153916,3.0737 -6.064603,1.59499 -12.103292,3.30662 -12.103292,3.30662 0,0 5.843349,-2.30507 11.736862,-4.50103 5.892616,-2.19562 11.832656,-4.28153 11.832656,-4.28153 0,0 5.93912,-2.08561 11.92401,-4.06166 5.98396,-1.97575 12.01092,-3.84139 12.01092,-3.84139 0,0 0.5974,2.42654 0.5974,2.42654 0,0 0.59756,2.42649 0.59756,2.42649"
             id="path6817"
             inkscape:original-d="m 126.6284,802.56879 c 0,0 -24.97664,-1.25175 -24.97664,-1.25175 0,0 -24.976638,-1.25176 -24.976638,-1.25176 0,0 24.999998,-1.24824 24.999998,-1.24824 0,0 25,-1.24825 25,-1.24825 0,0 -0.0234,2.5 -0.0234,2.5 0,0 -0.0234,2.5 -0.0234,2.5" />
          <path
             inkscape:connector-curvature="0"
             style="fill:#374548;fill-opacity:1;stroke:none;stroke-width:2;stroke-miterlimit:4;stroke-dasharray:none;stroke-dashoffset:0;stroke-opacity:1"
             d="m 128.56191,775.69105 c 0,0 -6.08312,1.2351 -12.1472,2.58498 -6.06345,1.34974 -12.10518,2.81428 -12.10518,2.81428 0,0 -6.041091,1.46437 -12.058817,3.04447 -6.017048,1.57993 -12.008084,3.27558 -12.008084,3.27558 0,0 5.795653,-2.28907 11.641565,-4.46996 5.844972,-2.18053 11.737466,-4.25228 11.737466,-4.25228 0,0 5.89153,-2.07143 11.82893,-4.03422 5.93642,-1.96247 11.91593,-3.81576 11.91593,-3.81576 0,0 0.59757,2.42648 0.59757,2.42648 0,0 0.59774,2.42645 0.59774,2.42645"
             id="path6819"
             inkscape:original-d="m 126.6284,807.85015 c 0,0 -24.97664,-1.25175 -24.97664,-1.25175 0,0 -24.976638,-1.25175 -24.976638,-1.25175 0,0 24.999998,-1.24825 24.999998,-1.24825 0,0 25,-1.24825 25,-1.24825 0,0 -0.0234,2.5 -0.0234,2.5 0,0 -0.0234,2.5 -0.0234,2.5" />
          <path
             inkscape:connector-curvature="0"
             style="fill:#374548;fill-opacity:1;stroke:none;stroke-width:2;stroke-miterlimit:4;stroke-dasharray:none;stroke-dashoffset:0;stroke-opacity:1"
             d="m 129.87239,780.80481 c 0,0 -6.03572,1.22276 -12.05231,2.55937 -6.016,1.33649 -12.01019,2.78686 -12.01019,2.78686 0,0 -5.993584,1.45021 -11.96371,3.01524 -5.969494,1.56486 -11.912877,3.24453 -11.912877,3.24453 0,0 5.747958,-2.27307 11.54627,-4.43888 5.797328,-2.16544 11.642277,-4.22303 11.642277,-4.22303 0,0 5.84394,-2.05724 11.73384,-4.00677 5.88888,-1.9492 11.82096,-3.79014 11.82096,-3.79014 0,0 0.59774,2.42644 0.59774,2.42644 0,0 0.59792,2.4264 0.59792,2.4264"
             id="path6821"
             inkscape:original-d="m 126.6284,813.13152 c 0,0 -24.97664,-1.25176 -24.97664,-1.25176 0,0 -24.976638,-1.25175 -24.976638,-1.25175 0,0 24.999998,-1.24825 24.999998,-1.24825 0,0 25,-1.24824 25,-1.24824 0,0 -0.0234,2.5 -0.0234,2.5 0,0 -0.0234,2.5 -0.0234,2.5" />
          <path
             inkscape:connector-curvature="0"
             style="fill:#374548;fill-opacity:1;stroke:none;stroke-width:2;stroke-miterlimit:4;stroke-dasharray:none;stroke-dashoffset:0;stroke-opacity:1"
             d="m 131.18286,785.91856 c 0,0 -5.98832,1.21042 -11.95741,2.53377 -5.96855,1.32324 -11.91519,2.75945 -11.91519,2.75945 0,0 -5.94608,1.43606 -11.868611,2.986 -5.92194,1.5498 -11.817672,3.21347 -11.817672,3.21347 0,0 5.700263,-2.25706 11.450976,-4.40779 5.749687,-2.15035 11.547087,-4.19376 11.547087,-4.19376 0,0 5.79635,-2.04306 11.63875,-3.97935 5.84135,-1.93593 11.72597,-3.76452 11.72597,-3.76452 0,0 0.59793,2.42639 0.59793,2.42639 0,0 0.5981,2.42636 0.5981,2.42636"
             id="path6823"
             inkscape:original-d="m 126.6284,818.41288 c 0,0 -24.97664,-1.25175 -24.97664,-1.25175 0,0 -24.976638,-1.25176 -24.976638,-1.25176 0,0 24.999998,-1.24824 24.999998,-1.24824 0,0 25,-1.24825 25,-1.24825 0,0 -0.0234,2.5 -0.0234,2.5 0,0 -0.0234,2.5 -0.0234,2.5" />
          <path
             inkscape:connector-curvature="0"
             style="fill:#374548;fill-opacity:1;stroke:none;stroke-width:2;stroke-miterlimit:4;stroke-dasharray:none;stroke-dashoffset:0;stroke-opacity:1"
             d="m 132.49334,791.03231 c 0,0 -5.94092,1.19807 -11.86252,2.50817 -5.9211,1.30999 -11.8202,2.73203 -11.8202,2.73203 0,0 -5.89858,1.4219 -11.773502,2.95678 -5.874386,1.53473 -11.722463,3.18242 -11.722463,3.18242 0,0 5.652566,-2.24106 11.355678,-4.37672 5.702037,-2.13526 11.451897,-4.16451 11.451897,-4.16451 0,0 5.74876,-2.02888 11.54366,-3.9519 5.79381,-1.92266 11.63099,-3.73891 11.63099,-3.73891 0,0 0.59811,2.42635 0.59811,2.42635 0,0 0.59827,2.42631 0.59827,2.42631"
             id="path6825"
             inkscape:original-d="m 126.6284,823.69424 c 0,0 -24.97664,-1.25175 -24.97664,-1.25175 0,0 -24.976638,-1.25175 -24.976638,-1.25175 0,0 24.999998,-1.24825 24.999998,-1.24825 0,0 25,-1.24825 25,-1.24825 0,0 -0.0234,2.5 -0.0234,2.5 0,0 -0.0234,2.5 -0.0234,2.5" />
          <path
             inkscape:connector-curvature="0"
             style="fill:#374548;fill-opacity:1;stroke:none;stroke-width:2;stroke-miterlimit:4;stroke-dasharray:none;stroke-dashoffset:0;stroke-opacity:1"
             d="m 133.80381,796.14607 c 0,0 -5.89352,1.18573 -11.76762,2.48257 -5.87365,1.29673 -11.7252,2.7046 -11.7252,2.7046 0,0 -5.85108,1.40775 -11.678404,2.92754 -5.826832,1.51967 -11.627257,3.15138 -11.627257,3.15138 0,0 5.604871,-2.22506 11.260383,-4.34565 5.654398,-2.12016 11.356698,-4.13524 11.356698,-4.13524 0,0 5.70118,-2.0147 11.44858,-3.92447 5.74628,-1.90938 11.53602,-3.71328 11.53602,-3.71328 0,0 0.59828,2.4263 0.59828,2.4263 0,0 0.59845,2.42626 0.59845,2.42626"
             id="path6827"
             inkscape:original-d="m 126.6284,828.97561 c 0,0 -24.97664,-1.25176 -24.97664,-1.25176 0,0 -24.976638,-1.25175 -24.976638,-1.25175 0,0 24.999998,-1.24825 24.999998,-1.24825 0,0 25,-1.24824 25,-1.24824 0,0 -0.0234,2.5 -0.0234,2.5 0,0 -0.0234,2.5 -0.0234,2.5" />
          <path
             inkscape:connector-curvature="0"
             style="fill:#374548;fill-opacity:1;stroke:none;stroke-width:2;stroke-miterlimit:4;stroke-dasharray:none;stroke-dashoffset:0;stroke-opacity:1"
             d="m 135.11429,801.25981 c 0,0 -5.84612,1.1734 -11.67274,2.45698 -5.82619,1.28349 -11.63019,2.67719 -11.63019,2.67719 0,0 -5.80358,1.39359 -11.58331,2.89831 -5.779274,1.5046 -11.532047,3.12031 -11.532047,3.12031 0,0 5.557176,-2.20905 11.165089,-4.31456 5.606758,-2.10506 11.261508,-4.10598 11.261508,-4.10598 0,0 5.65359,-2.00052 11.3535,-3.89703 5.69873,-1.89612 11.44103,-3.68767 11.44103,-3.68767 0,0 0.59846,2.42626 0.59846,2.42626 0,0 0.59862,2.42621 0.59862,2.42621"
             id="path6829"
             inkscape:original-d="m 126.6284,834.25697 c 0,0 -24.97664,-1.25175 -24.97664,-1.25175 0,0 -24.976638,-1.25176 -24.976638,-1.25176 0,0 24.999998,-1.24824 24.999998,-1.24824 0,0 25,-1.24825 25,-1.24825 0,0 -0.0234,2.5 -0.0234,2.5 0,0 -0.0234,2.5 -0.0234,2.5" />
          <path
             inkscape:connector-curvature="0"
             style="fill:#374548;fill-opacity:1;stroke:none;stroke-width:2;stroke-miterlimit:4;stroke-dasharray:none;stroke-dashoffset:0;stroke-opacity:1"
             d="m 136.42476,806.37356 c 0,0 -5.79872,1.16106 -11.57784,2.43138 -5.77874,1.27024 -11.5352,2.64977 -11.5352,2.64977 0,0 -5.75607,1.37944 -11.4882,2.86908 -5.73172,1.48954 -11.43684,3.08927 -11.43684,3.08927 0,0 5.50948,-2.19305 11.06979,-4.28348 5.55911,-2.08998 11.16632,-4.07674 11.16632,-4.07674 0,0 5.606,-1.98633 11.25841,-3.86959 5.6512,-1.88284 11.34604,-3.66205 11.34604,-3.66205 0,0 0.59864,2.42621 0.59864,2.42621 0,0 0.59881,2.42617 0.59881,2.42617"
             id="path6831"
             inkscape:original-d="m 126.6284,839.53833 c 0,0 -24.97664,-1.25175 -24.97664,-1.25175 0,0 -24.976638,-1.25175 -24.976638,-1.25175 0,0 24.999998,-1.24825 24.999998,-1.24825 0,0 25,-1.24825 25,-1.24825 0,0 -0.0234,2.5 -0.0234,2.5 0,0 -0.0234,2.5 -0.0234,2.5" />
          <path
             inkscape:connector-curvature="0"
             style="fill:#374548;fill-opacity:1;stroke:none;stroke-width:2;stroke-miterlimit:4;stroke-dasharray:none;stroke-dashoffset:0;stroke-opacity:1"
             d="m 137.73524,811.48732 c 0,0 -5.75132,1.14871 -11.48295,2.40577 -5.73129,1.25699 -11.4402,2.62235 -11.4402,2.62235 0,0 -5.70857,1.36528 -11.3931,2.83984 -5.684169,1.47448 -11.341636,3.05823 -11.341636,3.05823 0,0 5.461784,-2.17705 10.974496,-4.25241 5.51147,-2.07489 11.07113,-4.04747 11.07113,-4.04747 0,0 5.55841,-1.97216 11.16332,-3.84215 5.60366,-1.86957 11.25107,-3.63643 11.25107,-3.63643 0,0 0.59881,2.42617 0.59881,2.42617 0,0 0.59899,2.42612 0.59899,2.42612"
             id="path6833"
             inkscape:original-d="m 126.6284,844.8197 c 0,0 -24.97664,-1.25176 -24.97664,-1.25176 0,0 -24.976638,-1.25175 -24.976638,-1.25175 0,0 24.999998,-1.24825 24.999998,-1.24825 0,0 25,-1.24824 25,-1.24824 0,0 -0.0234,2.5 -0.0234,2.5 0,0 -0.0234,2.5 -0.0234,2.5" />
          <path
             inkscape:connector-curvature="0"
             style="fill:#374548;fill-opacity:1;stroke:none;stroke-width:2;stroke-miterlimit:4;stroke-dasharray:none;stroke-dashoffset:0;stroke-opacity:1"
             d="m 139.04571,816.60107 c 0,0 -5.70392,1.13637 -11.38805,2.38017 -5.68384,1.24374 -11.3452,2.59494 -11.3452,2.59494 0,0 -5.66107,1.35112 -11.298,2.81061 -5.636617,1.4594 -11.246432,3.02716 -11.246432,3.02716 0,0 5.41409,-2.16104 10.879202,-4.22132 5.46383,-2.05979 10.97594,-4.01821 10.97594,-4.01821 0,0 5.51082,-1.95797 11.06823,-3.81471 5.55613,-1.85631 11.15609,-3.61081 11.15609,-3.61081 0,0 0.59899,2.42611 0.59899,2.42611 0,0 0.59916,2.42608 0.59916,2.42608"
             id="path6835"
             inkscape:original-d="m 126.6284,850.10106 c 0,0 -24.97664,-1.25175 -24.97664,-1.25175 0,0 -24.976638,-1.25176 -24.976638,-1.25176 0,0 24.999998,-1.24824 24.999998,-1.24824 0,0 25,-1.24825 25,-1.24825 0,0 -0.0234,2.5 -0.0234,2.5 0,0 -0.0234,2.5 -0.0234,2.5" />
          <path
             inkscape:connector-curvature="0"
             style="fill:#374548;fill-opacity:1;stroke:none;stroke-width:2;stroke-miterlimit:4;stroke-dasharray:none;stroke-dashoffset:0;stroke-opacity:1"
             d="m 140.35619,821.71482 c 0,0 -5.65653,1.12403 -11.29316,2.35457 -5.63639,1.23049 -11.25021,2.56753 -11.25021,2.56753 0,0 -5.61357,1.33696 -11.20289,2.78137 -5.58906,1.44434 -11.151225,2.99612 -11.151225,2.99612 0,0 5.366395,-2.14505 10.783905,-4.19025 5.41618,-2.0447 10.88075,-3.98896 10.88075,-3.98896 0,0 5.46323,-1.94379 10.97314,-3.78727 5.50859,-1.84303 11.06111,-3.58519 11.06111,-3.58519 0,0 0.59917,2.42607 0.59917,2.42607 0,0 0.59934,2.42603 0.59934,2.42603"
             id="path6837"
             inkscape:original-d="m 126.6284,855.38242 c 0,0 -24.97664,-1.25175 -24.97664,-1.25175 0,0 -24.976638,-1.25175 -24.976638,-1.25175 0,0 24.999998,-1.24825 24.999998,-1.24825 0,0 25,-1.24825 25,-1.24825 0,0 -0.0234,2.5 -0.0234,2.5 0,0 -0.0234,2.5 -0.0234,2.5" />
        </g>
        <path
           inkscape:connector-curvature="0"
           style="fill:#37c8ab;fill-opacity:1;stroke:#374548;stroke-width:2;stroke-miterlimit:4;stroke-dasharray:none;stroke-dashoffset:0;stroke-opacity:1"
           d="m 275.29083,698.25864 c 82.83143,-23.15826 169.29976,-37.15199 257.44312,-37.67465 79.41757,-0.30241 159.00953,11.46165 235.15124,35.50044 l -34.60461,109.60238 c -64.37321,-20.32539 -132.30667,-30.29043 -200.17575,-30.10342 -75.89773,0.0806 -152.16123,12.70259 -226.82861,33.55939 0,0 -30.98539,-110.88414 -30.98539,-110.88414 z"
           id="rect4212"
           inkscape:original-d="m 294.96454,714.11847 450,0 0,115 -450,0 z" />
      </g>
      <g
         transform="translate(-18.625345,0.227021)"
         id="text6893"
         style="font-style:normal;font-variant:normal;font-weight:normal;font-stretch:normal;font-size:90px;line-height:125%;font-family:Calibri;-inkscape-font-specification:'Calibri, Normal';text-align:start;letter-spacing:0px;word-spacing:0px;writing-mode:lr-tb;text-anchor:start;fill:#f9f9f9;fill-opacity:1;stroke:#374548;stroke-width:2;stroke-linecap:butt;stroke-linejoin:miter;stroke-miterlimit:4;stroke-dasharray:none;stroke-opacity:1">
        <path
           inkscape:connector-curvature="0"
           id="path6898"
           d="m 238.41064,796.34565 c 0.0528,0.22855 0.0414,0.44182 -0.0339,0.63981 -0.0753,0.198 -0.24333,0.38735 -0.50398,0.56822 -0.26732,0.15232 -0.63822,0.31372 -1.11285,0.48465 -0.4393,0.1928 -1.01735,0.3731 -1.73458,0.54176 -0.68851,0.1619 -1.28642,0.25808 -1.79431,0.28805 -0.50112,0.0585 -0.90513,0.0793 -1.21235,0.0621 -0.31396,-0.0458 -0.54875,-0.14041 -0.70436,-0.28414 -0.1556,-0.14371 -0.2607,-0.32963 -0.3152,-0.5578 l -12.69267,-53.13495 c -0.0545,-0.22817 -0.0417,-0.44224 0.0386,-0.64223 0.11055,-0.2072 0.3071,-0.38964 0.5897,-0.54717 0.3061,-0.19324 0.69493,-0.37585 1.16643,-0.54749 0.49505,-0.20732 1.09152,-0.39303 1.78917,-0.55652 0.75828,-0.1777 1.39054,-0.27982 1.89594,-0.30699 0.52916,-0.0628 0.95885,-0.0719 1.28878,-0.0278 0.32333,0.0155 0.5655,0.0951 0.72647,0.23855 0.16098,0.14343 0.2678,0.32945 0.32057,0.558 z"
           inkscape:original-d="m 236.34059,826.96576 q 0,0.35156 -0.17578,0.61523 -0.17578,0.26368 -0.61523,0.43946 -0.43946,0.13183 -1.18653,0.21972 -0.70312,0.13184 -1.80176,0.13184 -1.05468,0 -1.80175,-0.13184 -0.74707,-0.0879 -1.18653,-0.21972 -0.43945,-0.17578 -0.61523,-0.43946 -0.17578,-0.26367 -0.17578,-0.61523 l 0,-54.58008 q 0,-0.35156 0.17578,-0.61523 0.21973,-0.26368 0.65918,-0.39551 0.4834,-0.17578 1.18652,-0.26367 0.74707,-0.13184 1.75781,-0.13184 1.09864,0 1.80176,0.13184 0.74707,0.0879 1.18653,0.26367 0.43945,0.13183 0.61523,0.39551 0.17578,0.26367 0.17578,0.61523 l 0,54.58008 z" />
        <path
           inkscape:connector-curvature="0"
           id="path6900"
           d="m 295.37643,782.96208 c 0.0964,0.57775 0.0767,1.0859 -0.0589,1.52435 -0.10655,0.43362 -0.29752,0.80721 -0.5728,1.12089 -0.24628,0.30882 -0.54793,0.55286 -0.90507,0.73228 -0.35714,0.17943 -0.72389,0.30132 -1.10046,0.36571 -0.79659,0.13619 -1.59305,0.27346 -2.38938,0.4118 -0.7529,0.13079 -1.43128,0.17528 -2.03576,0.13295 -0.58056,-0.0763 -1.16718,-0.26995 -1.76043,-0.581 -0.5694,-0.34506 -1.1795,-0.83122 -1.83114,-1.45832 -0.62275,-0.63243 -1.34044,-1.45531 -2.15536,-2.46886 -7.85869,-9.53157 -15.91658,-18.97139 -24.16298,-28.31682 -1.28942,-1.44516 -2.6127,-2.95667 -3.97096,-4.53454 -1.33411,-1.6129 -2.60068,-3.17755 -3.79946,-4.69608 0,0 -0.0909,0.0188 -0.0909,0.0188 0.48853,2.05399 0.97039,4.15404 1.44595,6.30048 0.47552,2.14637 0.93286,4.28159 1.37227,6.40547 l 6.95654,33.62379 c 0.0416,0.20091 0.0254,0.41378 -0.0484,0.63861 -0.0797,0.19614 -0.25182,0.38152 -0.51624,0.55629 -0.24159,0.1401 -0.58686,0.28688 -1.03594,0.44076 -0.41431,0.17657 -0.96691,0.33743 -1.65823,0.48341 -0.69131,0.14598 -1.27622,0.22534 -1.75534,0.2375 -0.4442,0.0347 -0.805,0.037 -1.08261,0.006 -0.28372,-0.0591 -0.50165,-0.16224 -0.65378,-0.30946 -0.15827,-0.17587 -0.25899,-0.36409 -0.30206,-0.56472 l -11.01943,-51.3305 c -0.24611,-1.14645 -0.087,-2.03486 0.47934,-2.66508 0.56624,-0.63006 1.24665,-1.02898 2.03992,-1.19607 1.2509,-0.26348 2.50239,-0.52462 3.75447,-0.78342 0.88556,-0.18304 1.63375,-0.26164 2.24354,-0.23672 0.64044,0.0187 1.22494,0.15407 1.75312,0.40584 0.55288,0.21688 1.10402,0.58397 1.65296,1.10127 0.5736,0.4824 1.20901,1.1172 1.90515,1.90453 6.41611,7.20557 12.72098,14.46747 18.90972,21.78451 1.14065,1.33829 2.24241,2.65531 3.30559,3.95039 1.05795,1.2663 2.08021,2.52527 3.06712,3.77649 0.98692,1.25122 1.95334,2.49215 2.89946,3.72253 0.97041,1.19634 1.92561,2.41107 2.86567,3.64413 0,0 0.0439,-0.008 0.0439,-0.008 -0.45728,-2.26907 -0.91559,-4.62764 -1.37445,-7.07487 0,0 -1.25026,-7.14122 -1.25026,-7.14122 l -5.31932,-30.38268 c -0.0354,-0.20198 -0.007,-0.40024 0.0859,-0.59477 0.0927,-0.19453 0.26733,-0.37359 0.52403,-0.53704 0.28242,-0.19763 0.64948,-0.36521 1.10111,-0.50243 0.48228,-0.14249 1.10859,-0.27973 1.87823,-0.4107 0.67733,-0.11526 1.26753,-0.18524 1.77003,-0.2104 0.50254,-0.0252 0.90463,0.0115 1.206,0.10962 0.29657,0.0692 0.52091,0.18036 0.67302,0.33319 0.15212,0.15283 0.24501,0.33038 0.27877,0.5326 l 8.63769,51.73877 c 0,0 9e-5,-2e-5 9e-5,-2e-5 z"
           inkscape:original-d="m 294.43629,824.98822 q 0,0.87891 -0.30761,1.49414 -0.26367,0.61524 -0.74707,1.01074 -0.43946,0.39551 -1.01075,0.57129 -0.57128,0.17578 -1.14257,0.17578 l -2.417,0 q -1.14257,0 -2.02148,-0.21972 -0.83496,-0.26368 -1.62598,-0.87891 -0.74707,-0.65918 -1.53808,-1.75781 -0.74707,-1.09863 -1.66992,-2.8125 l -17.92969,-32.34375 q -1.40625,-2.50488 -2.85645,-5.22949 -1.40625,-2.76856 -2.63672,-5.36133 l -0.0879,0 q 0.0879,3.16406 0.13184,6.45996 0.0439,3.2959 0.0439,6.54785 l 0,34.32129 q 0,0.30762 -0.17578,0.61523 -0.17578,0.26368 -0.61523,0.43946 -0.39551,0.13183 -1.09863,0.21972 -0.65918,0.13184 -1.71387,0.13184 -1.05469,0 -1.75781,-0.13184 -0.65918,-0.0879 -1.05469,-0.21972 -0.39551,-0.17578 -0.57129,-0.43946 -0.17578,-0.30761 -0.17578,-0.61523 l 0,-52.4707 q 0,-1.75782 0.9668,-2.50489 0.96679,-0.74707 2.10937,-0.74707 l 3.60352,0 q 1.27441,0 2.10937,0.21973 0.87891,0.21973 1.53809,0.74707 0.70312,0.4834 1.31836,1.40625 0.65918,0.87891 1.40625,2.24121 l 13.79882,24.96094 q 1.27442,2.28515 2.46094,4.48242 1.18653,2.15332 2.28516,4.2627 1.09863,2.10937 2.15332,4.1748 1.09863,2.02148 2.15332,4.08691 l 0.0439,0 q -0.0879,-3.47168 -0.13183,-7.20703 0,-3.77929 0,-7.25097 l 0,-30.84961 q 0,-0.30762 0.17578,-0.57129 0.17578,-0.26367 0.57129,-0.43946 0.43945,-0.21972 1.09863,-0.30761 0.70313,-0.0879 1.80176,-0.0879 0.9668,0 1.66992,0.0879 0.70313,0.0879 1.09863,0.30761 0.39551,0.17579 0.57129,0.43946 0.17578,0.26367 0.17578,0.57129 l 0,52.4707 z" />
        <path
           inkscape:connector-curvature="0"
           id="path6902"
           d="m 347.65735,777.71957 c 0.0245,0.23282 -0.0109,0.45725 -0.10603,0.6733 -0.0691,0.18387 -0.24326,0.34941 -0.52243,0.49684 -0.27921,0.14745 -0.66331,0.27674 -1.15248,0.38839 -0.48612,0.14077 -1.12212,0.25393 -1.90879,0.34066 -1.01986,0.11243 -1.85434,0.16214 -2.50532,0.1475 -0.65074,-0.0146 -1.14962,-0.11938 -1.49694,-0.31513 -0.34728,-0.19572 -0.63988,-0.42701 -0.87771,-0.69405 -8.03101,-8.59963 -16.28884,-17.08755 -24.76037,-25.46135 l 3.95671,28.13483 c 0.0285,0.20293 -0.001,0.41406 -0.0889,0.6334 -0.0918,0.19036 -0.27492,0.36404 -0.54916,0.52122 -0.27839,0.12822 -0.66032,0.25644 -1.14601,0.38518 -0.45252,0.15357 -1.04158,0.28268 -1.76775,0.38825 -0.6971,0.10135 -1.29864,0.14528 -1.8052,0.13119 -0.50229,0.0149 -0.90498,7.2e-4 -1.20838,-0.0429 -0.30766,-0.0726 -0.5326,-0.18699 -0.67477,-0.34337 -0.14649,-0.18532 -0.23493,-0.3793 -0.26523,-0.58201 l -8.06273,-53.94814 c -0.0346,-0.23166 -0.003,-0.44356 0.0945,-0.63567 0.0977,-0.19211 0.2946,-0.35457 0.59085,-0.48715 0.29192,-0.16154 0.69659,-0.31003 1.21388,-0.44498 0.51301,-0.1639 1.14108,-0.29985 1.8838,-0.40709 0.77364,-0.11169 1.41471,-0.15891 1.92235,-0.14244 0.53451,-0.0169 0.96488,0.011 1.2908,0.0833 0.32186,0.0433 0.55694,0.1434 0.70522,0.29998 0.14829,0.15658 0.23868,0.35085 0.2713,0.58277 l 3.51639,25.00391 c 5.71674,-9.30197 11.63821,-18.54868 17.7729,-27.7331 0.15575,-0.28329 0.34782,-0.52655 0.57619,-0.72971 0.22838,-0.20316 0.50859,-0.36802 0.8406,-0.49444 0.35975,-0.15904 0.78525,-0.29594 1.27641,-0.41039 0.52214,-0.11796 1.18819,-0.22232 1.9973,-0.31201 0.80915,-0.0897 1.46799,-0.11747 1.97549,-0.0843 0.50441,0.004 0.90307,0.0495 1.19572,0.13579 0.32382,0.083 0.54171,0.2069 0.65373,0.37152 0.14314,0.16132 0.22553,0.34385 0.24727,0.54754 0.0404,0.37829 -0.0281,0.76813 -0.20493,1.16962 -0.14589,0.3984 -0.46208,0.96153 -0.94757,1.69119 -5.83924,8.18125 -11.49854,16.41954 -16.98452,24.70925 8.12551,7.99996 16.05123,16.10668 23.76541,24.31808 0.57808,0.70318 0.92582,1.19676 1.04407,1.47821 0.14452,0.24955 0.22591,0.46169 0.2443,0.63629 z"
           inkscape:original-d="m 346.73122,826.87787 q 0,0.35156 -0.17578,0.65918 -0.13184,0.26367 -0.57129,0.43945 -0.43946,0.17578 -1.18653,0.26367 -0.74707,0.13184 -1.93359,0.13184 -1.53809,0 -2.50488,-0.13184 -0.9668,-0.13183 -1.4502,-0.4834 -0.4834,-0.35156 -0.79101,-0.79101 l -20.91797,-28.43262 0,28.43262 q 0,0.30762 -0.17578,0.61523 -0.17579,0.26368 -0.61524,0.43946 -0.43945,0.13183 -1.18652,0.21972 -0.70313,0.13184 -1.80176,0.13184 -1.05469,0 -1.80176,-0.13184 -0.74707,-0.0879 -1.18652,-0.21972 -0.43945,-0.17578 -0.61524,-0.43946 -0.17578,-0.30761 -0.17578,-0.61523 l 0,-54.58008 q 0,-0.35156 0.17578,-0.61523 0.17579,-0.26368 0.61524,-0.39551 0.43945,-0.17578 1.18652,-0.26367 0.74707,-0.13184 1.80176,-0.13184 1.09863,0 1.80176,0.13184 0.74707,0.0879 1.18652,0.26367 0.43945,0.13183 0.61524,0.39551 0.17578,0.26367 0.17578,0.61523 l 0,25.26856 20.12695,-25.26856 q 0.26367,-0.39551 0.61523,-0.65918 0.35157,-0.26367 0.83496,-0.39551 0.52735,-0.17578 1.23047,-0.26367 0.74707,-0.0879 1.88965,-0.0879 1.14258,0 1.84571,0.13184 0.70312,0.0879 1.09863,0.26367 0.43945,0.17578 0.57129,0.43945 0.17578,0.26367 0.17578,0.57129 0,0.57129 -0.30762,1.14258 -0.26367,0.57129 -1.05469,1.58203 l -18.85254,22.54395 20.30274,26.98242 q 0.74707,1.14258 0.87891,1.58203 0.17578,0.39551 0.17578,0.65918 z" />
        <path
           inkscape:connector-curvature="0"
           id="path6904"
           d="m 386.26258,759.84666 c 0.14915,2.65857 -0.22479,5.05416 -1.10915,7.18603 -0.85501,2.13068 -2.11897,3.9791 -3.78753,5.5502 -1.64137,1.54035 -3.61775,2.75542 -5.93272,3.65291 -2.28601,0.89552 -4.78048,1.4494 -7.493,1.66779 -1.89591,0.15264 -3.67299,0.14105 -5.33476,-0.0372 -1.6326,-0.1808 -3.11239,-0.44347 -4.44073,-0.79072 -1.29918,-0.34998 -2.4113,-0.72887 -3.33675,-1.1394 -0.89626,-0.41337 -1.53757,-0.77619 -1.92374,-1.0911 -0.35666,-0.31763 -0.64918,-0.72966 -0.87738,-1.23624 -0.20174,-0.53855 -0.34795,-1.25932 -0.43807,-2.16189 -0.064,-0.64064 -0.0869,-1.16761 -0.0686,-1.5812 0.0154,-0.44267 0.069,-0.80089 0.16101,-1.07472 0.092,-0.27381 0.22224,-0.46318 0.39077,-0.56807 0.16563,-0.13401 0.36664,-0.21265 0.60292,-0.23585 0.41337,-0.0406 1.01389,0.15068 1.79923,0.57496 0.81523,0.42164 1.83892,0.86774 3.07169,1.34162 1.2327,0.47386 2.69518,0.89914 4.38846,1.28017 1.72008,0.34929 3.66508,0.43425 5.84089,0.26002 1.64647,-0.13184 3.12879,-0.46564 4.45029,-1.00417 1.35083,-0.54068 2.48521,-1.23777 3.40389,-2.09412 0.94602,-0.88749 1.6472,-1.93223 2.10201,-3.13587 0.45475,-1.20348 0.63473,-2.54989 0.53621,-4.03891 -0.10627,-1.60605 -0.56941,-2.95365 -1.3946,-4.04198 -0.825,-1.08809 -1.88269,-2.01283 -3.17404,-2.77163 -1.2933,-0.78791 -2.76445,-1.47249 -4.41311,-2.05081 -1.62078,-0.60979 -3.29058,-1.21141 -5.00941,-1.80398 -1.72125,-0.62174 -3.40735,-1.31482 -5.05914,-2.07993 -1.65175,-0.76509 -3.15617,-1.70041 -4.51381,-2.80832 -1.35751,-1.10782 -2.51207,-2.4379 -3.46219,-3.99231 -0.92224,-1.58609 -1.49991,-3.52944 -1.72564,-5.82978 -0.2315,-2.35915 0.008,-4.49931 0.72717,-6.42112 0.7473,-1.95356 1.87043,-3.63311 3.37213,-5.03499 1.53256,-1.40451 3.39684,-2.52654 5.5905,-3.35975 2.22223,-0.86496 4.6517,-1.40102 7.28082,-1.60298 1.34585,-0.10339 2.70107,-0.087 4.064,0.0494 1.39213,0.10492 2.6961,0.30751 3.91072,0.60658 1.24393,0.26774 2.34991,0.60612 3.31737,1.01344 0.96543,0.37804 1.59745,0.70586 1.89624,0.9804 0.32839,0.24358 0.54462,0.45033 0.64886,0.61984 0.10248,0.14034 0.19285,0.34007 0.2711,0.59918 0.0765,0.2299 0.14086,0.51915 0.19313,0.8678 0.0523,0.34868 0.095,0.80045 0.12845,1.35548 0.0316,0.52577 0.0287,0.99507 -0.009,1.40777 -0.006,0.41081 -0.0473,0.76512 -0.12264,1.06287 -0.0771,0.26854 -0.20418,0.48152 -0.38118,0.63896 -0.14779,0.12633 -0.33005,0.19618 -0.54689,0.20962 -0.34087,0.0211 -0.8952,-0.1496 -1.66511,-0.51095 -0.73856,-0.36317 -1.65219,-0.75874 -2.74013,-1.18425 -1.09006,-0.45477 -2.3801,-0.83572 -3.86928,-1.13997 -1.46021,-0.33566 -3.09334,-0.43545 -4.89535,-0.29646 -1.67771,0.12941 -3.12048,0.46568 -4.32542,1.00511 -1.20746,0.51033 -2.18355,1.15106 -2.9282,1.91974 -0.74472,0.76878 -1.27472,1.65227 -1.59121,2.64945 -0.31651,0.99721 -0.42589,2.03507 -0.33028,3.11353 0.13954,1.57385 0.64382,2.89522 1.50788,3.96514 0.86424,1.07014 1.95875,1.98892 3.28252,2.75902 1.35439,0.76761 2.86652,1.45135 4.53669,2.05402 1.66994,0.60259 3.36824,1.22252 5.09334,1.86002 1.72317,0.60837 3.41834,1.31184 5.08418,2.11 1.66395,0.76899 3.1528,1.7302 4.46585,2.88098 1.34159,1.11984 2.43493,2.49199 3.28181,4.11412 0.87546,1.59157 1.3724,3.51234 1.49864,5.76252 0,0 4e-5,0 4e-5,0 z"
           inkscape:original-d="m 386.23805,812.15619 q 0,3.99902 -1.49414,7.11914 -1.45019,3.12012 -4.08691,5.31738 -2.59278,2.15332 -6.15235,3.25196 -3.51562,1.09863 -7.60254,1.09863 -2.85644,0 -5.31738,-0.4834 -2.41699,-0.4834 -4.35058,-1.18652 -1.88965,-0.70313 -3.20801,-1.4502 -1.27442,-0.74707 -1.80176,-1.27441 -0.4834,-0.52735 -0.74707,-1.31836 -0.21973,-0.83496 -0.21973,-2.19727 0,-0.96679 0.0879,-1.58203 0.0879,-0.65918 0.26368,-1.05469 0.17578,-0.3955 0.43945,-0.52734 0.26367,-0.17578 0.61523,-0.17578 0.61524,0 1.71387,0.74707 1.14258,0.74707 2.90039,1.62598 1.75781,0.8789 4.21875,1.66992 2.50488,0.74707 5.75684,0.74707 2.46093,0 4.48242,-0.65918 2.06543,-0.65918 3.51562,-1.84571 1.49414,-1.23046 2.28516,-2.98828 0.79102,-1.75781 0.79102,-3.99902 0,-2.41699 -1.09864,-4.13086 -1.09863,-1.71387 -2.90039,-2.98828 -1.80176,-1.31836 -4.13086,-2.37305 -2.28515,-1.09863 -4.70215,-2.19726 -2.41699,-1.14258 -4.70214,-2.50489 -2.28516,-1.3623 -4.08692,-3.208 -1.80176,-1.84571 -2.94433,-4.30664 -1.09864,-2.50489 -1.09864,-5.97657 0,-3.55957 1.27442,-6.32812 1.31836,-2.8125 3.60351,-4.70215 2.3291,-1.88965 5.49317,-2.85645 3.20801,-1.01074 6.89941,-1.01074 1.88965,0 3.7793,0.35156 1.93359,0.30762 3.60351,0.87891 1.71387,0.52734 3.03223,1.23047 1.31836,0.65918 1.71387,1.09863 0.43945,0.39551 0.57129,0.65918 0.13183,0.21973 0.21972,0.61524 0.0879,0.35156 0.13184,0.8789 0.0439,0.52735 0.0439,1.36231 0,0.79101 -0.0879,1.40625 -0.0439,0.61523 -0.17578,1.05468 -0.13183,0.39551 -0.39551,0.61524 -0.21972,0.17578 -0.52734,0.17578 -0.4834,0 -1.53808,-0.61523 -1.01075,-0.61524 -2.50489,-1.36231 -1.49414,-0.79101 -3.55957,-1.40625 -2.02148,-0.65918 -4.57031,-0.65918 -2.37305,0 -4.13086,0.65918 -1.75781,0.61524 -2.90039,1.66992 -1.14258,1.05469 -1.71387,2.50489 -0.57129,1.45019 -0.57129,3.07617 0,2.37304 1.09864,4.08691 1.09863,1.71387 2.90039,3.03223 1.8457,1.31836 4.1748,2.41699 2.3291,1.09863 4.7461,2.24121 2.41699,1.09863 4.74609,2.46094 2.3291,1.31836 4.13086,3.16406 1.8457,1.80176 2.94433,4.30664 1.14258,2.46094 1.14258,5.84473 z" />
        <path
           inkscape:connector-curvature="0"
           id="path6906"
           d="m 435.88511,766.55566 c -0.004,0.46874 -0.0224,0.87882 -0.055,1.23011 -0.0325,0.35131 -0.0942,0.65845 -0.18488,0.92137 -0.0612,0.26317 -0.15154,0.49681 -0.27099,0.70093 -0.11948,0.20417 -0.3275,0.45147 -0.62384,0.74233 -0.29684,0.29137 -0.91659,0.74 -1.85969,1.35128 -0.9426,0.58173 -2.11692,1.16363 -3.52291,1.75007 -0.61722,0.24978 -1.2779,0.48268 -1.98216,0.6991 -0.86736,0.26571 -1.80059,0.50631 -2.80002,0.72262 -1.78251,0.42128 -3.73853,0.64487 -5.87302,0.67517 -3.68398,0.0523 -7.02651,-0.48798 -10.05021,-1.63459 -2.99352,-1.14709 -5.59455,-2.87387 -7.80986,-5.19203 -2.18512,-2.31855 -3.94117,-5.20357 -5.25982,-8.66026 -1.2897,-3.4861 -2.05364,-7.52578 -2.26703,-12.11442 -0.21896,-4.70833 0.20743,-8.93056 1.30652,-12.67275 1.12952,-3.74236 2.80973,-6.93399 5.05032,-9.56876 2.23885,-2.66325 4.97577,-4.72108 8.2047,-6.15968 3.25953,-1.43912 6.90232,-2.19663 10.90466,-2.25694 1.76475,-0.0266 3.48493,0.11423 5.15744,0.42174 1.1451,0.19051 2.2308,0.42517 3.25657,0.70326 0.4734,0.12862 0.93405,0.26645 1.3819,0.41344 1.42064,0.46627 2.68113,1.0101 3.781,1.62892 1.09953,0.61863 1.8517,1.13659 2.2572,1.54898 0.43738,0.38357 0.71784,0.67884 0.84176,0.88475 0.12399,0.20603 0.21614,0.45578 0.2765,0.74925 0.092,0.26443 0.15197,0.58719 0.18013,0.96832 0.0595,0.38141 0.0869,0.83573 0.0825,1.36313 -0.005,0.58592 -0.0404,1.08379 -0.1062,1.49343 -0.0658,0.40965 -0.16223,0.7605 -0.28917,1.0525 -0.12671,0.26272 -0.28399,0.46665 -0.47184,0.61181 -0.1565,0.11609 -0.3592,0.17329 -0.60819,0.17173 -0.43587,-0.003 -1.04059,-0.28453 -1.81732,-0.84421 -0.77627,-0.58872 -1.78875,-1.22181 -3.03784,-1.89518 -0.71722,-0.41381 -1.5332,-0.80125 -2.4479,-1.16124 -0.63751,-0.25077 -1.32311,-0.48818 -2.05668,-0.71184 -1.75262,-0.57336 -3.86738,-0.84583 -6.33649,-0.80902 -2.68811,0.0401 -5.13304,0.60233 -7.32264,1.67959 -2.15951,1.04744 -3.98619,2.57822 -5.47679,4.58622 -1.49092,2.00843 -2.61492,4.44764 -3.377,7.31578 -0.73257,2.83851 -1.02679,6.06967 -0.89654,9.69803 0.12913,3.59728 0.63755,6.7735 1.5118,9.52495 0.90342,2.72183 2.11299,4.99631 3.62418,6.82517 1.54039,1.79917 3.3837,3.15448 5.53293,4.07217 2.14907,0.88862 4.55969,1.31152 7.24412,1.27655 2.27162,-0.0296 4.24455,-0.3233 5.92541,-0.88859 0.6224,-0.20576 1.21003,-0.41833 1.76293,-0.63797 0.96563,-0.38423 1.82502,-0.78982 2.57821,-1.21809 1.21422,-0.70289 2.20837,-1.32865 2.98294,-1.88212 0.77403,-0.55306 1.38539,-0.82742 1.83088,-0.82422 0.20796,0.001 0.38589,0.0468 0.53371,0.13587 0.14784,0.0891 0.26519,0.26584 0.35203,0.53027 0.0871,0.23515 0.14352,0.57256 0.16938,1.0123 0.0555,0.44004 0.0802,0.99686 0.0743,1.67077 0,0 -5e-5,0 -5e-5,0 z"
           inkscape:original-d="m 434.9734,820.06635 q 0,0.70312 -0.0439,1.23046 -0.0439,0.52735 -0.17578,0.92286 -0.0879,0.3955 -0.26367,0.70312 -0.17579,0.30762 -0.61524,0.74707 -0.43945,0.43945 -1.8457,1.36231 -1.40625,0.8789 -3.51563,1.75781 -2.06543,0.83496 -4.79004,1.40625 -2.68066,0.61523 -5.88867,0.61523 -5.53711,0 -10.01953,-1.8457 -4.43848,-1.8457 -7.60254,-5.44922 -3.12012,-3.60352 -4.83398,-8.87695 -1.66992,-5.31739 -1.66992,-12.2168 0,-7.07519 1.80175,-12.6123 1.84571,-5.53711 5.1416,-9.36036 3.2959,-3.86718 7.86622,-5.88867 4.61425,-2.02148 10.19531,-2.02148 2.46094,0 4.79004,0.4834 2.3291,0.43945 4.30664,1.14257 1.97754,0.70313 3.51562,1.62598 1.53809,0.92285 2.10938,1.53809 0.61523,0.57129 0.79101,0.8789 0.17578,0.30762 0.26368,0.74707 0.13183,0.39551 0.17578,0.9668 0.0879,0.57129 0.0879,1.36231 0,0.8789 -0.0879,1.49414 -0.0879,0.61523 -0.26368,1.05468 -0.17578,0.39551 -0.43945,0.61524 -0.21972,0.17578 -0.57129,0.17578 -0.61523,0 -1.71386,-0.83496 -1.09864,-0.87891 -2.85645,-1.88965 -1.71387,-1.05469 -4.21875,-1.88965 -2.46094,-0.87891 -5.93262,-0.87891 -3.77929,0 -6.89941,1.53809 -3.07617,1.49414 -5.27344,4.43848 -2.19726,2.94433 -3.42773,7.20703 -1.18653,4.21875 -1.18653,9.66797 0,5.40527 1.14258,9.58008 1.18653,4.13085 3.33985,6.94335 2.19726,2.76856 5.36132,4.21875 3.16407,1.40625 7.16309,1.40625 3.38379,0 5.88867,-0.83496 2.54883,-0.83496 4.30664,-1.8457 1.80176,-1.05469 2.94434,-1.88965 1.14258,-0.83496 1.80176,-0.83496 0.30761,0 0.52734,0.13184 0.21973,0.13183 0.35156,0.52734 0.13184,0.35156 0.17578,1.01074 0.0879,0.65918 0.0879,1.66993 z" />
        <path
           inkscape:connector-curvature="0"
           id="path6908"
           d="m 488.46725,774.34598 c 0.18017,0.66193 0.25258,1.19757 0.21816,1.60628 -0.003,0.38205 -0.12956,0.66545 -0.37977,0.85032 -0.25029,0.18491 -0.65444,0.28343 -1.21273,0.29643 -0.5295,0.0154 -1.24479,-0.0134 -2.14831,-0.0847 -0.90348,-0.0713 -1.62906,-0.15629 -2.17872,-0.25677 -0.52246,-0.069 -0.92609,-0.15775 -1.21122,-0.26706 -0.25376,-0.13633 -0.44719,-0.29743 -0.58024,-0.48347 -0.10388,-0.18389 -0.20465,-0.4116 -0.30236,-0.68313 -1.28644,-4.72101 -2.60533,-9.43872 -3.9566,-14.15277 -8.01544,-0.52646 -16.03976,-0.91798 -24.06799,-1.17486 -1.72743,4.50353 -3.4249,9.01314 -5.0924,13.52852 -0.0945,0.26139 -0.21751,0.49277 -0.36887,0.69416 -0.15065,0.17211 -0.37393,0.32776 -0.66977,0.4672 -0.26596,0.11087 -0.66247,0.18935 -1.18984,0.23618 -0.49835,0.0475 -1.15593,0.0625 -1.97436,0.0465 -0.84756,-0.0166 -1.54779,-0.0727 -2.10183,-0.16986 -0.52514,-0.0673 -0.9031,-0.20489 -1.13405,-0.41348 -0.20165,-0.20812 -0.2999,-0.50258 -0.29441,-0.88343 0.0352,-0.40964 0.17456,-0.93528 0.41898,-1.57617 6.63182,-17.51138 13.73858,-34.9321 21.31889,-52.24084 0.13963,-0.31677 0.30849,-0.57361 0.50657,-0.77048 0.22962,-0.19554 0.53647,-0.34372 0.92049,-0.44424 0.41557,-0.0991 0.92422,-0.14991 1.52558,-0.15174 0.63405,-0.0296 1.42556,-0.022 2.37273,0.0243 1.01027,0.0494 1.84627,0.12162 2.5059,0.21474 0.66144,0.0639 1.19433,0.16591 1.59818,0.30527 0.40391,0.13935 0.70974,0.33238 0.91745,0.57872 0.20936,0.2171 0.36794,0.49014 0.47581,0.81908 5.8446,17.96861 11.20745,36.00407 16.08472,54.08532 z m -22.19932,-48.19992 c 0,0 -0.0468,-0.002 -0.0468,-0.002 -3.94389,9.27003 -7.7573,18.57057 -11.44005,27.89861 6.77083,0.23465 13.53869,0.56437 20.30069,0.98935 -2.80323,-9.64531 -5.74134,-19.27489 -8.81376,-28.88568 0,0 -5e-5,0 -5e-5,0 z"
           inkscape:original-d="m 487.57594,825.42767 q 0.35157,0.9668 0.35157,1.58203 0.0439,0.57129 -0.30762,0.87891 -0.35156,0.30762 -1.18653,0.39551 -0.79101,0.0879 -2.15332,0.0879 -1.3623,0 -2.19726,-0.0879 -0.79102,-0.0439 -1.23047,-0.17578 -0.39551,-0.17578 -0.61523,-0.43946 -0.17579,-0.26367 -0.35157,-0.65918 l -4.87793,-13.84277 -23.64257,0 -4.65821,13.66699 q -0.13183,0.39551 -0.35156,0.70313 -0.21973,0.26367 -0.65918,0.4834 -0.39551,0.17578 -1.18652,0.26367 -0.74707,0.0879 -1.97754,0.0879 -1.27442,0 -2.10938,-0.13184 -0.79101,-0.0879 -1.14258,-0.3955 -0.30761,-0.30762 -0.30761,-0.87891 0.0439,-0.61524 0.39551,-1.58203 l 19.07226,-52.82227 q 0.17578,-0.4834 0.43945,-0.79101 0.30762,-0.30762 0.83496,-0.4834 0.57129,-0.17578 1.40625,-0.21973 0.87891,-0.0879 2.19727,-0.0879 1.40625,0 2.3291,0.0879 0.92285,0.0439 1.49414,0.21973 0.57129,0.17578 0.87891,0.52734 0.30762,0.30762 0.4834,0.79102 l 19.07226,52.82226 z m -24.47754,-46.62597 -0.0439,0 -9.79981,28.34472 19.77539,0 -9.93164,-28.34472 z" />
        <path
           inkscape:connector-curvature="0"
           id="path6910"
           d="m 538.12492,742.33216 c -0.41692,2.81077 -1.2823,5.2746 -2.58147,7.39345 -1.29946,2.11932 -2.96506,3.84683 -4.99195,5.1893 -1.99739,1.34705 -4.3529,2.28027 -7.07145,2.81085 -2.68968,0.53472 -5.82051,0.58156 -9.41286,0.15884 -2.20006,-0.25888 -4.40134,-0.50756 -6.60374,-0.74603 l -2.20467,20.36344 c -0.0252,0.23306 -0.12008,0.4291 -0.28437,0.58821 -0.13521,0.16226 -0.35442,0.28598 -0.65759,0.37142 -0.27105,0.0594 -0.65653,0.0919 -1.15685,0.0982 -0.47437,0.0385 -1.07448,0.0199 -1.80127,-0.0548 -0.72679,-0.0747 -1.33271,-0.17996 -1.81843,-0.31693 -0.45953,-0.10489 -0.83038,-0.21515 -1.11277,-0.33128 -0.27948,-0.14528 -0.46897,-0.31098 -0.56836,-0.49734 -0.0994,-0.18634 -0.13781,-0.39616 -0.1151,-0.62948 l 5.08367,-52.23521 c 0.11354,-1.16668 0.52366,-1.96582 1.23293,-2.39652 0.70902,-0.43055 1.47347,-0.60447 2.29139,-0.52125 4.35678,0.44333 8.70994,0.92479 13.05881,1.44442 1.31876,0.15757 2.56746,0.36935 3.74517,0.63423 1.21239,0.23966 2.61275,0.63872 4.19592,1.19983 1.61856,0.53624 3.21022,1.38491 4.76859,2.54542 1.59367,1.13584 2.88465,2.45775 3.87356,3.96108 0.98906,1.50356 1.66016,3.18576 2.01711,5.04483 0.39209,1.83488 0.42758,3.80949 0.11373,5.92535 z m -8.39495,-0.57557 c 0.31336,-2.29376 0.1155,-4.27206 -0.6034,-5.93654 -0.68779,-1.65976 -1.66579,-2.9577 -2.93297,-3.89097 -1.23595,-0.92908 -2.57441,-1.5871 -4.01128,-1.97246 -1.40572,-0.38147 -2.79465,-0.65329 -4.1649,-0.81575 -2.4758,-0.29353 -4.953,-0.57461 -7.43149,-0.84322 l -2.45541,22.67945 c 2.34232,0.25367 4.6834,0.5188 7.02311,0.79538 2.35505,0.27839 4.33511,0.22899 5.94913,-0.15772 1.64365,-0.38275 3.06171,-1.01043 4.25566,-1.88716 1.19759,-0.90565 2.16762,-2.03149 2.90783,-3.37993 0.74409,-1.37735 1.23371,-2.90743 1.46372,-4.59108 z"
           inkscape:original-d="m 531.96071,787.89838 q 0,4.26269 -1.40625,7.69043 -1.40625,3.42773 -4.04297,5.84472 -2.59277,2.41699 -6.41602,3.73535 -3.77929,1.31836 -9.05273,1.31836 l -6.45996,0 0,20.47852 q 0,0.35156 -0.21973,0.61523 -0.17578,0.26368 -0.61523,0.43946 -0.39551,0.13183 -1.14258,0.21972 -0.70313,0.13184 -1.80176,0.13184 -1.09863,0 -1.8457,-0.13184 -0.70313,-0.0879 -1.14258,-0.21972 -0.43945,-0.17578 -0.61523,-0.43946 -0.17578,-0.26367 -0.17578,-0.61523 l 0,-52.4707 q 0,-1.75782 0.92285,-2.50489 0.92285,-0.74707 2.06543,-0.74707 l 12.17285,0 q 1.8457,0 3.51562,0.17578 1.71387,0.13184 3.99903,0.65918 2.3291,0.4834 4.70214,1.88965 2.417,1.36231 4.08692,3.38379 1.66992,2.02149 2.54883,4.70215 0.92285,2.63672 0.92285,5.84473 z m -7.9541,0.61523 q 0,-3.47168 -1.31836,-5.80078 -1.27442,-2.3291 -3.20801,-3.47168 -1.88965,-1.14258 -3.95508,-1.4502 -2.02148,-0.30761 -3.95508,-0.30761 l -6.9873,0 0,22.80761 6.81152,0 q 3.42774,0 5.66895,-0.8789 2.28515,-0.87891 3.82324,-2.41699 1.53809,-1.58204 2.3291,-3.73536 0.79102,-2.19726 0.79102,-4.74609 z" />
        <path
           inkscape:connector-curvature="0"
           id="path6912"
           d="m 575.34189,786.723 c -0.11006,0.51556 -0.23659,0.96779 -0.3794,1.35658 -0.1367,0.36016 -0.30403,0.65394 -0.50186,0.88134 -0.19784,0.22741 -0.40887,0.37722 -0.63318,0.44944 -0.19575,0.0783 -0.40783,0.0933 -0.6364,0.0451 -8.87155,-1.87158 -17.78281,-3.5659 -26.72613,-5.08339 -0.66246,-0.11241 -1.25956,-0.43558 -1.79296,-0.97006 -0.49953,-0.55837 -0.65721,-1.40112 -0.47055,-2.52824 l 8.28562,-50.03009 c 0.18668,-1.12724 0.62692,-1.85602 1.32294,-2.18535 0.73177,-0.3529 1.45724,-0.46833 2.17456,-0.34633 9.57431,1.62838 19.11815,3.44485 28.62414,5.44982 0.24771,0.0522 0.45235,0.15541 0.6138,0.30937 0.19242,0.16054 0.3231,0.38292 0.39204,0.66707 0.0689,0.28417 0.0916,0.63335 0.068,1.04759 0.0134,0.3922 -0.041,0.87466 -0.16298,1.44764 -0.10979,0.51562 -0.25361,0.96417 -0.4312,1.34556 -0.14074,0.35932 -0.29996,0.65485 -0.47757,0.88658 -0.17154,0.20308 -0.37688,0.33913 -0.61604,0.40822 -0.20846,0.0756 -0.43541,0.0875 -0.68101,0.0357 -7.76712,-1.63788 -15.56001,-3.14887 -23.37455,-4.53322 l -3.10802,17.56753 c 6.54023,1.1578 13.06439,2.40637 19.56989,3.74588 0.23984,0.0494 0.43489,0.16444 0.58503,0.34505 0.18604,0.15812 0.31512,0.36437 0.38727,0.61866 0.1021,0.26053 0.14125,0.59773 0.11756,1.01165 -0.0237,0.41395 -0.0923,0.89325 -0.20566,1.43812 -0.1074,0.51613 -0.22973,0.95446 -0.36679,1.31483 -0.13708,0.3604 -0.30382,0.63987 -0.5001,0.83843 -0.16656,0.20474 -0.36572,0.34293 -0.59749,0.41463 -0.19613,0.0492 -0.41302,0.0493 -0.6508,3.1e-4 -6.44982,-1.32775 -12.91835,-2.56539 -19.40298,-3.71306 l -3.54437,20.03392 c 7.44616,1.31671 14.86959,2.75532 22.266,4.31607 0.23069,0.0487 0.4204,0.14871 0.56903,0.29997 0.17747,0.15738 0.31077,0.38033 0.39986,0.66879 0.0952,0.25983 0.12872,0.59637 0.10066,1.00966 -0.0219,0.38469 -0.0941,0.86336 -0.2164,1.43628 z"
           inkscape:original-d="m 575.24684,824.98822 q 0,0.79102 -0.0879,1.40625 -0.0879,0.57129 -0.30762,0.9668 -0.21972,0.3955 -0.52734,0.57129 -0.26367,0.17578 -0.61523,0.17578 l -27.29004,0 q -1.01075,0 -1.9336,-0.65918 -0.8789,-0.70313 -0.8789,-2.41699 l 0,-50.7129 q 0,-1.71386 0.8789,-2.37304 0.92285,-0.70313 1.9336,-0.70313 l 26.98242,0 q 0.35156,0 0.61523,0.17578 0.30762,0.17579 0.4834,0.57129 0.17578,0.39551 0.26367,1.01075 0.13184,0.57128 0.13184,1.45019 0,0.79102 -0.13184,1.40625 -0.0879,0.57129 -0.26367,0.9668 -0.17578,0.35156 -0.4834,0.52734 -0.26367,0.17578 -0.61523,0.17578 l -22.23633,0 0,17.8418 19.07227,0 q 0.35156,0 0.61523,0.21973 0.30762,0.17578 0.4834,0.52734 0.21973,0.35156 0.30762,0.9668 0.0879,0.61523 0.0879,1.45019 0,0.79102 -0.0879,1.36231 -0.0879,0.57129 -0.30762,0.92285 -0.17578,0.35156 -0.4834,0.52734 -0.26367,0.13184 -0.61523,0.13184 l -19.07227,0 0,20.34668 22.54395,0 q 0.35156,0 0.61523,0.17578 0.30762,0.17578 0.52734,0.57129 0.21973,0.35156 0.30762,0.96679 0.0879,0.57129 0.0879,1.4502 z" />
      </g>
    </g>
  </g>
</svg>
